<svg width="121" height="122" viewBox="0 0 121 122" fill="none" xmlns="http://www.w3.org/2000/svg">
<path d="M54.43 10.95L56.2727 7.99653L55.3668 7.43557C55.2378 7.35289 55.1339 7.23657 55.0662 7.09917C54.9984 6.96176 54.9695 6.80847 54.9825 6.65584C54.9994 6.48342 55.005 6.31009 54.9993 6.13695C54.9974 5.9852 55.0365 5.83574 55.1125 5.70439C55.1885 5.57305 55.2987 5.46472 55.4313 5.39088L56.3681 4.88601L54.7161 1.82318L53.7793 2.32524C53.6443 2.3972 53.492 2.43007 53.3393 2.42016C53.1867 2.41025 53.0399 2.35795 52.9154 2.26914C52.7738 2.16768 52.6268 2.07404 52.475 1.98866C52.341 1.91533 52.2294 1.80688 52.1523 1.67494C52.0753 1.54301 52.0355 1.39258 52.0375 1.23979L52.0711 0.173965L48.5988 0.0673828L48.5652 1.1332C48.5596 1.28631 48.5116 1.43485 48.4264 1.56217C48.3412 1.68949 48.2222 1.79056 48.0827 1.85403C48.0042 1.8905 47.9285 1.92696 47.8527 1.96903C47.777 2.0111 47.7041 2.05037 47.6312 2.09525C47.5012 2.17513 47.3517 2.21742 47.1992 2.21742C47.0467 2.21742 46.8972 2.17513 46.7673 2.09525L45.8557 1.53429L44.0242 4.48773L44.9301 5.04869C45.0587 5.13114 45.1623 5.24701 45.23 5.38387C45.2977 5.52074 45.3269 5.67344 45.3144 5.82562C45.2975 5.99803 45.2919 6.17136 45.2976 6.3445C45.3001 6.49673 45.2612 6.64678 45.1851 6.77866C45.1091 6.91054 44.9986 7.01931 44.8656 7.09338L43.9316 7.60947L45.5724 10.6723L46.512 10.1702C46.6467 10.0988 46.7985 10.0663 46.9505 10.0762C47.1026 10.0861 47.2489 10.1381 47.3731 10.2263C47.5162 10.3245 47.6536 10.4143 47.8135 10.5068C47.9488 10.5787 48.0614 10.6868 48.1387 10.8191C48.2159 10.9514 48.2548 11.1025 48.251 11.2557L48.2174 12.3215L51.6925 12.4309L51.7262 11.3623C51.7317 11.2099 51.7799 11.0621 51.8651 10.9357C51.9504 10.8093 52.0694 10.7093 52.2086 10.6471C52.2843 10.6106 52.3628 10.5713 52.4386 10.5293C52.5143 10.4872 52.5872 10.4479 52.6601 10.403C52.7913 10.3239 52.9417 10.282 53.0949 10.282C53.2481 10.282 53.3984 10.3239 53.5296 10.403L54.43 10.95ZM51.5046 8.75662C51.0083 9.02269 50.4443 9.13563 49.8839 9.08114C49.3235 9.02666 48.7918 8.80721 48.3561 8.45053C47.9203 8.09386 47.6002 7.616 47.4361 7.07736C47.272 6.53873 47.2713 5.96353 47.4341 5.42451C47.5969 4.88548 47.9159 4.40684 48.3507 4.04911C48.7856 3.69139 49.3167 3.47065 49.877 3.41481C50.4373 3.35897 51.0016 3.47054 51.4985 3.73541C51.9954 4.00028 52.4026 4.40655 52.6686 4.90284C52.8455 5.23224 52.9558 5.5933 52.993 5.96535C53.0303 6.33741 52.9938 6.71316 52.8857 7.07111C52.7776 7.42906 52.6 7.76217 52.363 8.05139C52.126 8.34061 51.8343 8.58026 51.5046 8.75662Z" fill="#EBEBEB"/>
<path d="M5.58723 49.0194L7.69643 47.7937L7.3234 47.1486C7.2704 47.055 7.24444 46.9485 7.2484 46.8411C7.25236 46.7336 7.2861 46.6293 7.34584 46.5399C7.41035 46.439 7.47205 46.3352 7.52815 46.2258C7.57459 46.1323 7.64618 46.0537 7.73487 45.9987C7.82357 45.9437 7.92584 45.9145 8.03021 45.9145H8.7875V43.4771H8.03021C7.92304 43.4784 7.81776 43.449 7.72679 43.3923C7.63583 43.3356 7.563 43.2541 7.51693 43.1573C7.46083 43.048 7.39913 42.9442 7.33462 42.8432C7.27488 42.7538 7.24115 42.6495 7.23718 42.5421C7.23322 42.4346 7.25919 42.3281 7.31218 42.2346L7.68521 41.5895L5.57601 40.3722L5.22541 41.0201C5.17074 41.1118 5.09174 41.1865 4.99718 41.236C4.90262 41.2855 4.79619 41.3079 4.6897 41.3006C4.6308 41.3006 4.56909 41.3006 4.51019 41.3006C4.45129 41.3006 4.38959 41.3006 4.33069 41.3006C4.22424 41.3076 4.11793 41.2851 4.02343 41.2356C3.92893 41.1861 3.84988 41.1116 3.79497 41.0201L3.41913 40.3694L1.29871 41.5895L1.67455 42.2374C1.72761 42.3304 1.75363 42.4364 1.74966 42.5435C1.7457 42.6505 1.71191 42.7543 1.65211 42.8432C1.58597 42.9447 1.52512 43.0496 1.4698 43.1573C1.42373 43.2541 1.3509 43.3356 1.25994 43.3923C1.16897 43.449 1.06368 43.4784 0.956523 43.4771H0.210449V45.9145H0.956523C1.06368 45.9132 1.16897 45.9426 1.25994 45.9992C1.3509 46.0559 1.42373 46.1374 1.4698 46.2342C1.52512 46.342 1.58597 46.4468 1.65211 46.5483C1.71191 46.6372 1.7457 46.741 1.74966 46.8481C1.75363 46.9551 1.72761 47.0611 1.67455 47.1542L1.29871 47.7937L3.40791 49.0109L3.78375 48.363C3.83819 48.2711 3.91714 48.1962 4.01176 48.1467C4.10638 48.0971 4.21293 48.0749 4.31947 48.0826H4.49897H4.67848C4.78501 48.0749 4.89157 48.0971 4.98619 48.1467C5.08081 48.1962 5.15976 48.2711 5.2142 48.363L5.58723 49.0194ZM4.49897 46.6914C4.10329 46.6919 3.71636 46.5749 3.38729 46.3552C3.05821 46.1355 2.80183 45.8229 2.65067 45.4573C2.49951 45.0916 2.46039 44.6893 2.53827 44.3013C2.61615 43.9134 2.80753 43.5573 3.08811 43.2783C3.36869 42.9993 3.72583 42.8099 4.11421 42.7342C4.50258 42.6585 4.9047 42.6999 5.26951 42.8532C5.63433 43.0064 5.94541 43.2645 6.16327 43.5948C6.38113 43.9251 6.49596 44.3127 6.49318 44.7084C6.49022 45.2353 6.2788 45.7397 5.90514 46.1113C5.53147 46.4828 5.02593 46.6914 4.49897 46.6914Z" fill="#EBEBEB"/>
<path d="M69.2 13.5751L67.9827 11.4659L67.3377 11.839C67.2449 11.8924 67.139 11.9189 67.0319 11.9155C66.9249 11.912 66.8209 11.8787 66.7318 11.8193C66.6297 11.7526 66.5239 11.6917 66.4149 11.637C66.3166 11.5893 66.2339 11.5147 66.1763 11.4219C66.1187 11.329 66.0886 11.2218 66.0895 11.1125V10.3665H63.655V11.1125C63.656 11.22 63.6262 11.3255 63.569 11.4165C63.5118 11.5075 63.4297 11.5801 63.3324 11.6258C63.2246 11.6811 63.1198 11.742 63.0183 11.8081C62.9291 11.8675 62.8252 11.9008 62.7182 11.9043C62.6111 11.9077 62.5052 11.8812 62.4124 11.8278L61.7673 11.4547L60.5557 13.5751L61.2036 13.9482C61.2955 14.0033 61.3703 14.0828 61.4198 14.1778C61.4693 14.2729 61.4915 14.3798 61.484 14.4867C61.484 14.5456 61.484 14.6045 61.484 14.6662C61.484 14.7279 61.484 14.7868 61.484 14.8457C61.4928 14.952 61.4711 15.0586 61.4214 15.153C61.3717 15.2474 61.2961 15.3256 61.2036 15.3786L60.5557 15.7545L61.7729 17.8637L62.418 17.4906C62.5116 17.4376 62.6181 17.4117 62.7255 17.4156C62.833 17.4196 62.9373 17.4533 63.0267 17.5131C63.1277 17.5776 63.2314 17.6393 63.3408 17.6954C63.4363 17.743 63.5168 17.8162 63.5732 17.9068C63.6296 17.9974 63.6599 18.1019 63.6606 18.2086V18.9547H66.0895V18.2086C66.0902 18.1019 66.1204 17.9974 66.1769 17.9068C66.2333 17.8162 66.3138 17.743 66.4093 17.6954C66.5187 17.6393 66.6224 17.5776 66.7234 17.5131C66.8123 17.4533 66.9161 17.4195 67.0231 17.4155C67.1302 17.4115 67.2362 17.4376 67.3292 17.4906L67.9771 17.8637L69.1944 15.7545L68.5465 15.3814C68.4548 15.3267 68.3801 15.2477 68.3306 15.1532C68.2811 15.0586 68.2587 14.9522 68.266 14.8457C68.266 14.7868 68.266 14.7251 68.266 14.6662C68.266 14.6073 68.266 14.5456 68.266 14.4867C68.2585 14.3798 68.2808 14.2729 68.3303 14.1778C68.3798 14.0828 68.4546 14.0033 68.5465 13.9482L69.2 13.5751ZM66.8721 14.6662C66.8715 15.0605 66.7541 15.4458 66.5346 15.7734C66.3151 16.1009 66.0035 16.3561 65.6391 16.5066C65.2746 16.6571 64.8737 16.6962 64.4871 16.6189C64.1004 16.5417 63.7454 16.3515 63.4667 16.0725C63.1881 15.7935 62.9985 15.4382 62.9218 15.0514C62.845 14.6647 62.8847 14.2638 63.0357 13.8996C63.1867 13.5354 63.4423 13.2241 63.7702 13.0051C64.0981 12.7861 64.4835 12.6692 64.8778 12.6692C65.4053 12.6692 65.9113 12.8781 66.285 13.2503C66.6587 13.6225 66.8698 14.1275 66.8721 14.655V14.6662Z" fill="#EBEBEB"/>
<path d="M115.734 81.3136L111.989 81.3921L110.144 81.423C109.53 81.437 108.921 81.423 108.307 81.4398L108.433 81.3136L108.447 84.4522L108.307 84.3119L112.02 84.3288C113.26 84.3288 114.497 84.3624 115.734 84.3764L115.658 84.4522C115.658 83.9389 115.683 83.4228 115.695 82.8983L115.734 81.3136ZM115.734 81.3136L115.776 82.8675C115.776 83.3891 115.807 83.9193 115.812 84.4522V84.5363H115.734C114.497 84.5363 113.26 84.5812 112.02 84.584L108.307 84.6008H108.167V84.4606L108.183 81.322V81.1958H108.307C108.935 81.1958 109.56 81.1958 110.186 81.2098L112.054 81.2407L115.734 81.3136Z" fill="#EBEBEB"/>
<path d="M78.2088 56.093H70.7817V59.2316H78.2088V56.093Z" fill="#EBEBEB"/>
<path d="M74.0659 52.1356L70.3215 52.2113L68.4759 52.245C67.8617 52.245 67.2502 52.245 66.6388 52.245L66.765 52.1216V55.2573L66.6248 55.1199L70.3383 55.1367C71.578 55.1367 72.8149 55.1676 74.0518 55.1816L73.9761 55.2573C73.9761 54.7441 74.0014 54.228 74.0126 53.7063L74.0659 52.1356ZM74.0659 52.1356L74.1051 53.6867C74.1192 54.2111 74.1388 54.7413 74.1444 55.2714V55.3471H74.0659C72.829 55.3611 71.592 55.392 70.3523 55.392L66.6388 55.4088H66.4985V55.2658L66.5154 52.13V52.001H66.65C67.2755 52.001 67.9037 52.001 68.5292 52.015L70.3972 52.0487L74.0659 52.1356Z" fill="#EBEBEB"/>
<path d="M82.3571 52.1356L78.6099 52.2113L76.7644 52.245C76.1501 52.245 75.5415 52.245 74.93 52.245L75.0534 52.1216L75.0703 55.2573L74.93 55.1199L78.6436 55.1367C79.8805 55.1367 81.1174 55.1676 82.3571 55.1816L82.2786 55.2573C82.2786 54.7441 82.3038 54.228 82.315 53.7063L82.3571 52.1356ZM82.3571 52.1356L82.3964 53.6867C82.3964 54.2111 82.4272 54.7413 82.4328 55.2714V55.3471H82.3571C81.1174 55.3611 79.8805 55.392 78.6436 55.392L74.93 55.4088H74.7842V55.2658L74.7982 52.13V52.001H74.9244C75.5499 52.001 76.1754 52.001 76.8008 52.015L78.6688 52.0487L82.3571 52.1356Z" fill="#EBEBEB"/>
<path d="M7.11271 6.26586L10.8571 6.19013L12.7027 6.15647C13.3169 6.15647 13.9284 6.15647 14.5398 6.15647L14.4136 6.27989L14.3996 3.14132L14.5398 3.28156L10.8347 3.25071C9.59495 3.25071 8.35804 3.21986 7.12113 3.20583L7.19686 3.1273C7.19686 3.64338 7.17161 4.15946 7.1604 4.68115L7.11271 6.26586ZM7.11271 6.26586L7.07064 4.71481C7.07064 4.19032 7.03979 3.66021 7.03418 3.1273V3.05157H7.11271C8.34963 3.05157 9.58654 3.00669 10.8263 3.00669L14.5398 2.98706H14.68V3.1273L14.6632 6.26586V6.39208H14.5398C13.9143 6.39208 13.2861 6.39208 12.6606 6.37525L10.7926 6.3444L7.11271 6.26586Z" fill="#EBEBEB"/>
<path d="M2.96744 10.2261L10.3945 10.2261V7.08751L2.96744 7.08751V10.2261Z" fill="#EBEBEB"/>
<path d="M108.318 6.28269L112.065 6.20416L113.911 6.17331C114.525 6.17331 115.134 6.17331 115.745 6.15648L115.622 6.28269L115.608 3.14413L115.745 3.28437L112.031 3.25352C110.795 3.25352 109.558 3.22267 108.318 3.20864L108.396 3.13292C108.396 3.64619 108.371 4.16227 108.36 4.68396L108.318 6.28269ZM108.318 6.28269L108.279 4.72884C108.279 4.20434 108.248 3.67424 108.242 3.14413V3.05719H108.318C109.558 3.04316 110.795 3.01231 112.031 3.01231L115.734 2.99268H115.877V3.13572L115.871 6.28269V6.40891H115.734C115.108 6.40891 114.483 6.40891 113.857 6.40891L111.989 6.37525L108.318 6.28269Z" fill="#EBEBEB"/>
<path d="M58.3988 98.4116H50.9717V101.55H58.3988V98.4116Z" fill="#EBEBEB"/>
<path d="M10.3973 82.4861L6.65009 82.573L4.80454 82.6039C4.19029 82.6179 3.58165 82.6039 2.9702 82.6207L3.09361 82.4945L3.10764 85.6331L2.9702 85.4928L6.68375 85.5096C7.92066 85.5096 9.15757 85.5433 10.3973 85.5573L10.3188 85.6331C10.3188 85.1198 10.344 84.6037 10.3552 84.0792L10.3973 82.4861ZM10.3973 82.4861L10.4366 84.0399C10.4366 84.5616 10.4674 85.0917 10.473 85.6246V85.7004H10.3973C9.15757 85.7144 7.92066 85.7453 6.68375 85.7481L2.98142 85.7649H2.83838V85.6246V82.4861V82.3599H2.98142C3.60689 82.3599 4.23236 82.3599 4.85783 82.3767L6.72582 82.4075L10.3973 82.4861Z" fill="#EBEBEB"/>
<path d="M54.2558 94.454L50.5086 94.5325L48.663 94.5634C48.0516 94.5774 47.4402 94.5634 46.8287 94.5802L46.9521 94.454L46.969 97.5925L46.8287 97.4523L50.5423 97.4719C51.7792 97.4719 53.0189 97.5028 54.2558 97.5168L54.1801 97.5925C54.1801 97.0793 54.2025 96.5632 54.2165 96.0415L54.2558 94.454ZM54.2558 94.454L54.2951 96.0078C54.3091 96.5323 54.3259 97.0596 54.3315 97.5925V97.6683H54.2558C53.0189 97.6823 51.7792 97.7103 50.5423 97.7131L46.8287 97.73H46.6885V97.5897V94.4512V94.325H46.8147C47.4402 94.325 48.0684 94.325 48.6911 94.339L50.5591 94.3698L54.2558 94.454Z" fill="#EBEBEB"/>
<path d="M81.5327 67.2842V109.637H107.138V67.2842H81.5327ZM104.812 94.011H83.8579V82.9826H104.812V94.011ZM104.812 80.3573H83.8579V69.3317H104.812V80.3573Z" fill="#DBDBDB"/>
<path d="M118.718 67.2869H107.14V109.642H118.718V67.2869Z" fill="#EBEBEB"/>
<path d="M88.8359 69.3318H83.8574V80.3574H88.8359V69.3318Z" fill="#EBEBEB"/>
<path d="M104.885 107.053H83.9194V96.395H104.885V107.053ZM84.0597 106.913H104.745V96.5353H84.0597V106.913Z" fill="#EBEBEB"/>
<path d="M96.4711 99.427H92.334V100.939H96.4711V99.427Z" fill="#EBEBEB"/>
<path d="M88.8359 82.9854H83.8574V94.011H88.8359V82.9854Z" fill="#EBEBEB"/>
<path d="M101.946 94.0083V83.8438H98.4426V94.0083H101.946Z" fill="#A6A6A6"/>
<path d="M101.949 92.3787V90.1853H98.4455V92.3787H101.949Z" fill="#DBDBDB"/>
<path d="M101.946 88.4184V87.1169H98.4426V88.4184H101.946Z" fill="#DBDBDB"/>
<path d="M98.824 71.8503H89.9692V80.3573H98.824V71.8503Z" fill="#EBEBEB"/>
<path d="M102.187 71.8503H98.8213V80.3573H102.187V71.8503Z" fill="#C7C7C7"/>
<path d="M89.9692 76.1052H98.8212L91.9073 76.324L89.9692 76.1052Z" fill="#C7C7C7"/>
<path d="M98.8212 79.3306H89.9692L96.883 79.5493L98.8212 79.3306Z" fill="#C7C7C7"/>
<path d="M89.9692 73.7268H95.576L90.5919 73.9063L89.9692 73.7268Z" fill="#C7C7C7"/>
<path d="M98.8211 78.0771H93.2144L98.1985 78.2567L98.8211 78.0771Z" fill="#C7C7C7"/>
<path d="M92.0928 72.7788H98.4176L97.363 72.8854L92.0928 72.7788Z" fill="#C7C7C7"/>
<path d="M90.8306 77.0168H97.1554L96.1008 77.1234L90.8306 77.0168Z" fill="#C7C7C7"/>
<path d="M94.7178 74.5374H98.8212L99.556 74.8234L94.7178 74.5374Z" fill="#EBEBEB"/>
<path d="M88.8389 74.5374H92.9423L93.6743 74.8234L88.8389 74.5374Z" fill="#EBEBEB"/>
<path d="M94.1035 78.3604H90.0001L89.2681 78.6464L94.1035 78.3604Z" fill="#EBEBEB"/>
<path d="M98.8213 77.3896H102.117L102.849 77.6757L98.8213 77.3896Z" fill="#C7C7C7"/>
<path d="M99.9712 76.1052H102.526L102.187 75.8696L99.9712 76.1052Z" fill="#C7C7C7"/>
<path d="M104.815 83.1648H101.949V94.0081H104.815V83.1648Z" fill="#EBEBEB"/>
<path d="M103.393 85.3049C103.275 85.3055 103.159 85.2709 103.061 85.2056C102.962 85.1403 102.885 85.0472 102.839 84.9381C102.794 84.829 102.781 84.7088 102.804 84.5927C102.827 84.4766 102.884 84.3699 102.967 84.2861C103.05 84.2022 103.157 84.1451 103.273 84.1218C103.389 84.0985 103.509 84.1102 103.618 84.1553C103.728 84.2004 103.821 84.277 103.887 84.3753C103.953 84.4736 103.988 84.5892 103.988 84.7075C103.988 84.8655 103.925 85.017 103.814 85.129C103.702 85.2409 103.551 85.3042 103.393 85.3049Z" fill="white"/>
<path d="M103.393 85.0498C103.325 85.0504 103.259 85.0308 103.202 84.9935C103.145 84.9563 103.101 84.903 103.075 84.8406C103.048 84.7781 103.041 84.7092 103.054 84.6426C103.067 84.5761 103.099 84.5148 103.147 84.4667C103.195 84.4186 103.256 84.3857 103.322 84.3723C103.389 84.3588 103.458 84.3654 103.52 84.3913C103.583 84.4171 103.637 84.4609 103.674 84.5173C103.712 84.5736 103.732 84.6399 103.732 84.7077C103.732 84.7979 103.697 84.8845 103.633 84.9486C103.569 85.0127 103.483 85.0491 103.393 85.0498Z" fill="#A6A6A6"/>
<path d="M104.815 92.3029V89.6636H101.948V92.3029H104.815Z" fill="white"/>
<path d="M98.4424 91.7698H87.5991V94.0248H98.4424V91.7698Z" fill="#C7C7C7"/>
<path d="M96.3052 92.8975C96.3052 92.7793 96.3402 92.6638 96.4059 92.5656C96.4715 92.4673 96.5648 92.3907 96.674 92.3455C96.7831 92.3003 96.9033 92.2885 97.0192 92.3115C97.135 92.3346 97.2415 92.3915 97.325 92.475C97.4086 92.5586 97.4655 92.665 97.4885 92.7809C97.5116 92.8968 97.4998 93.0169 97.4545 93.1261C97.4093 93.2353 97.3328 93.3286 97.2345 93.3942C97.1363 93.4599 97.0208 93.4949 96.9026 93.4949C96.824 93.4953 96.7462 93.4801 96.6735 93.4502C96.6009 93.4203 96.5349 93.3763 96.4793 93.3207C96.4238 93.2652 96.3798 93.1992 96.3499 93.1265C96.32 93.0539 96.3048 92.976 96.3052 92.8975Z" fill="white"/>
<path d="M96.5606 92.8974C96.5606 92.8297 96.5806 92.7635 96.6182 92.7073C96.6558 92.651 96.7093 92.6071 96.7718 92.5812C96.8343 92.5553 96.9031 92.5485 96.9695 92.5618C97.0359 92.575 97.0968 92.6075 97.1447 92.6554C97.1926 92.7033 97.2251 92.7642 97.2383 92.8306C97.2515 92.897 97.2448 92.9658 97.2189 93.0283C97.193 93.0908 97.1491 93.1443 97.0928 93.1819C97.0366 93.2195 96.9704 93.2395 96.9027 93.2395C96.8577 93.2399 96.813 93.2313 96.7713 93.2143C96.7297 93.1972 96.6918 93.172 96.6599 93.1402C96.6281 93.1083 96.6029 93.0704 96.5858 93.0288C96.5688 92.9871 96.5602 92.9424 96.5606 92.8974Z" fill="#A6A6A6"/>
<path d="M89.3075 94.0278H91.9468V91.7728H89.3075V94.0278Z" fill="white"/>
<path d="M115.755 51.2112C118.152 44.3202 114.594 36.8205 107.808 34.4602C101.022 32.0998 93.5785 35.7726 91.1815 42.6636C88.7845 49.5546 92.3422 57.0543 99.1278 59.4147C105.913 61.775 113.358 58.1022 115.755 51.2112Z" fill="#EBEBEB"/>
<path d="M113.047 50.2629C114.917 44.8876 112.141 39.0375 106.848 37.1962C101.555 35.3549 95.7479 38.2198 93.8782 43.5951C92.0084 48.9704 94.7838 54.8205 100.077 56.6618C105.37 58.5031 111.177 55.6382 113.047 50.2629Z" fill="white"/>
<path d="M110.798 46.8176C110.817 48.7801 110.062 50.6712 108.697 52.0817C107.333 53.4921 105.467 54.3085 103.505 54.3541C102.541 54.3652 101.583 54.1848 100.689 53.8233C99.7943 53.4618 98.9804 52.9264 98.2943 52.2481C97.6082 51.5699 97.0635 50.7622 96.6918 49.8719C96.3201 48.9816 96.1287 48.0264 96.1288 47.0616C96.1098 45.0991 96.8643 43.208 98.2291 41.7975C99.5939 40.3871 101.459 39.5708 103.421 39.5251C104.386 39.514 105.343 39.6944 106.238 40.0559C107.132 40.4174 107.946 40.9528 108.632 41.6311C109.318 42.3094 109.863 43.117 110.235 44.0073C110.607 44.8976 110.798 45.8528 110.798 46.8176Z" fill="#EBEBEB"/>
<path d="M107.931 46.8624C107.94 48.0546 107.48 49.2026 106.651 50.0589C105.821 50.9152 104.689 51.4112 103.497 51.4398C102.909 51.4465 102.326 51.3365 101.782 51.1161C101.237 50.8958 100.742 50.5695 100.324 50.1562C99.907 49.7429 99.5757 49.2509 99.3499 48.7085C99.1241 48.1662 99.0082 47.5845 99.009 46.997C98.9976 45.8034 99.4564 44.6532 100.286 43.7951C101.116 42.937 102.25 42.4399 103.443 42.4112C104.032 42.4041 104.615 42.5142 105.161 42.7349C105.706 42.9556 106.202 43.2827 106.619 43.6969C107.037 44.1112 107.368 44.6044 107.593 45.1479C107.819 45.6913 107.933 46.2742 107.931 46.8624Z" fill="white"/>
<path d="M105.455 46.9045C105.461 47.4344 105.258 47.9454 104.891 48.3274C104.524 48.7094 104.021 48.9317 103.491 48.9464C103.229 48.9512 102.969 48.9036 102.725 48.8062C102.482 48.7089 102.261 48.5638 102.074 48.3795C101.888 48.1952 101.74 47.9754 101.64 47.7332C101.54 47.4909 101.489 47.2311 101.491 46.969C101.485 46.4391 101.688 45.9281 102.055 45.5461C102.422 45.1641 102.925 44.9418 103.455 44.9271C103.717 44.9222 103.977 44.9699 104.221 45.0672C104.464 45.1646 104.685 45.3097 104.872 45.494C105.058 45.6783 105.206 45.898 105.306 46.1403C105.406 46.3825 105.456 46.6424 105.455 46.9045Z" fill="#EBEBEB"/>
<path d="M84.3652 36.7958L84.2612 36.9946L103.363 46.9809L103.467 46.782L84.3652 36.7958Z" fill="#C7C7C7"/>
<path d="M83.4564 37.3429L83.5041 37.3233L84.3792 37.054L82.6542 36.1509L81.7202 36.4342L83.4564 37.3429Z" fill="#C7C7C7"/>
<path d="M82.4468 35.0459L82.7581 35.9546L84.483 36.855C84.3462 36.566 84.2436 36.2619 84.1773 35.949L82.4468 35.0459Z" fill="#C7C7C7"/>
<path d="M103.887 46.7138L103.525 47.3617L102.568 47.2804L103.197 46.7643L103.261 45.9565L103.887 46.7138Z" fill="#C7C7C7"/>
<path d="M39.5558 73.1351C39.6532 73.6542 39.6168 74.1895 39.45 74.6905C39.2831 75.1916 38.9913 75.6418 38.6022 75.9988L35.343 76.6075C34.8377 76.4089 34.3929 76.0819 34.0528 75.6587C33.7126 75.2355 33.4888 74.7309 33.4035 74.1947C33.3182 73.6585 33.3743 73.1094 33.5663 72.6015C33.7584 72.0937 34.0796 71.6447 34.4984 71.2992C34.9171 70.9536 35.4188 70.7233 35.9538 70.631C36.4889 70.5388 37.0387 70.5878 37.549 70.7733C38.0593 70.9587 38.5123 71.2742 38.8633 71.6884C39.2143 72.1027 39.451 72.6013 39.5502 73.1351H39.5558Z" fill="#EBEBEB"/>
<path d="M40.2249 75.6975L33.7202 76.9089L33.8948 77.8465L40.3995 76.635L40.2249 75.6975Z" fill="#EBEBEB"/>
<path d="M45.9609 87.9906L32.7861 90.4443L32.9607 91.3818L46.1355 88.9282L45.9609 87.9906Z" fill="#DBDBDB"/>
<path d="M46.4506 90.6191L33.2759 93.0728L33.4505 94.0103L46.6252 91.5566L46.4506 90.6191Z" fill="#DBDBDB"/>
<path d="M45.6448 89.0201L33.4517 91.291L33.7665 92.9813L45.9596 90.7104L45.6448 89.0201Z" fill="#EBEBEB"/>
<path d="M39.8013 76.749L34.4961 77.7371L34.6707 78.6746L39.9759 77.6865L39.8013 76.749Z" fill="#DBDBDB"/>
<path d="M44.7729 88.2108L33.9941 90.219C33.9941 90.219 35.994 87.302 35.9575 84.2616C35.9238 81.7008 35.548 78.5118 35.548 78.5118L39.1045 77.8499C39.1045 77.8499 39.901 80.9604 40.7873 83.3613C41.8504 86.2193 44.7729 88.2108 44.7729 88.2108Z" fill="#EBEBEB"/>
<path d="M27.0128 122C41.2671 122 52.8225 120.813 52.8225 119.349C52.8225 117.886 41.2671 116.699 27.0128 116.699C12.7585 116.699 1.20312 117.886 1.20312 119.349C1.20312 120.813 12.7585 122 27.0128 122Z" fill="#EBEBEB"/>
<path d="M0 109.642L14.8401 109.572L29.6775 109.549L59.3578 109.502L89.0381 109.549L103.878 109.572L118.716 109.642L103.878 109.709L89.0381 109.735L59.3578 109.782L29.6775 109.735L14.8401 109.709L0 109.642Z" fill="#263238"/>
<path d="M8.51247 21.1256C8.49339 18.9684 8.83855 16.8234 9.53341 14.7811C10.6042 11.7014 12.4504 8.94959 14.894 6.79092C17.3376 4.63225 20.2962 3.13959 23.4844 2.45687C24.5445 2.24172 25.6205 2.11414 26.7015 2.07542C26.982 2.07542 27.2429 2.05859 27.5121 2.05859L28.3227 2.08945C28.864 2.08945 29.4026 2.17359 29.9383 2.23249C32.0939 2.5019 34.1838 3.15547 36.1088 4.16219C38.0283 5.14959 39.7636 6.45983 41.2388 8.0356C42.7052 9.61965 43.8994 11.4355 44.7728 13.4096C42.9529 9.48876 39.8652 6.29534 36.0078 4.3445C35.0521 3.86627 34.0598 3.46486 33.0404 3.14405C32.5271 3.00381 32.0138 2.86357 31.4921 2.74296L30.7068 2.59711L30.3113 2.52138L29.9074 2.47651C29.3781 2.40463 28.8454 2.36062 28.3115 2.34468L27.5121 2.31664C27.2316 2.31664 26.9792 2.31663 26.7128 2.33346C25.6463 2.38039 24.5855 2.51359 23.5405 2.73174C21.4495 3.17609 19.4486 3.97076 17.6224 5.08216C15.8 6.21019 14.1766 7.63175 12.8178 9.28934C10.0862 12.6347 8.56854 16.8069 8.51247 21.1256Z" fill="#263238"/>
<path d="M11.4575 7.1999C12.3459 6.04231 13.3715 4.99689 14.5119 4.08658C16.8002 2.2477 19.4914 0.977031 22.3654 0.378647C22.7244 0.316942 23.0834 0.241212 23.4424 0.190726C23.8014 0.14024 24.166 0.0925589 24.5278 0.0589014L25.6189 0H26.71L25.6245 0.0673155L24.5447 0.187922C24.1857 0.235603 23.8295 0.300113 23.4732 0.356209C23.117 0.412304 22.7664 0.507667 22.413 0.580592C19.5988 1.25556 16.954 2.50349 14.6438 4.24645C13.488 5.12483 12.4209 6.11401 11.4575 7.1999Z" fill="#263238"/>
<path d="M94.6533 40.8545C98.9241 40.1757 102.838 38.0675 105.755 34.8746C107.192 33.2893 108.358 31.4773 109.205 29.5119C110.041 27.5438 110.536 25.4476 110.669 23.3133C110.734 22.2484 110.713 21.18 110.604 20.1186C110.571 19.855 110.542 19.5885 110.506 19.3249L110.36 18.5367C110.266 18.012 110.145 17.4925 109.998 16.9801C109.962 16.8511 109.931 16.722 109.895 16.593L109.766 16.2144L109.505 15.4571C109.317 14.9578 109.098 14.4698 108.882 13.9818C108.416 13.0215 107.875 12.0996 107.264 11.2246C104.774 7.69079 101.167 5.09898 97.0234 3.86768C99.1028 4.44181 101.072 5.35742 102.852 6.5771C104.63 7.80886 106.182 9.33844 107.44 11.0984C108.715 12.8526 109.665 14.8209 110.245 16.91C110.397 17.4297 110.522 17.9567 110.621 18.489L110.77 19.2856C110.809 19.5661 110.837 19.8213 110.873 20.0906C110.988 21.1674 111.014 22.2518 110.952 23.3329C110.684 27.6884 108.913 31.8159 105.941 35.0112C102.969 38.2066 98.9808 40.2718 94.6561 40.8545H94.6533Z" fill="#263238"/>
<path d="M113.125 21.3978C113.083 19.9493 112.9 18.5083 112.578 17.0952C111.929 14.2752 110.704 11.6197 108.98 9.29511C108.755 9.01463 108.545 8.71732 108.312 8.45367C108.08 8.19002 107.844 7.89272 107.6 7.63748L106.851 6.84373L106.06 6.09204L106.901 6.78763L107.698 7.5337C107.956 7.79174 108.197 8.06381 108.447 8.33027C108.697 8.59672 108.915 8.89122 109.151 9.1717C110.053 10.3229 110.82 11.5735 111.437 12.8993C112.043 14.2303 112.496 15.6257 112.789 17.0588C113.076 18.4861 113.189 19.9432 113.125 21.3978Z" fill="#263238"/>
<path d="M81.3754 44.9047C80.0868 49.8521 77.1312 54.2036 73.0074 57.2254C68.8835 60.2471 63.8437 61.7541 58.738 61.4922C57.4707 61.4188 56.2117 61.2405 54.9739 60.9593C54.6654 60.8836 54.3569 60.8135 54.0511 60.7321L53.1424 60.4517C52.5362 60.2663 51.9399 60.05 51.3557 59.8038C51.2099 59.7449 51.0612 59.6888 50.9154 59.6271L50.4863 59.4195L49.6308 59.0128C49.3503 58.8782 49.0698 58.7015 48.7894 58.55C48.5089 58.3986 48.2284 58.2359 47.9676 58.0676C46.8989 57.3852 45.891 56.612 44.9552 55.7564L44.2596 55.1142L43.6089 54.4214C43.1573 53.9726 42.7675 53.4649 42.3748 52.9769C42.1672 52.7385 41.9962 52.472 41.8138 52.214L41.2781 51.4399L40.7873 50.6293C40.6246 50.3488 40.4535 50.0908 40.3189 49.8047C39.1372 47.5671 38.3335 45.1495 37.9404 42.6497C38.8056 47.6503 41.3324 52.2129 45.1123 55.5994C46.0492 56.4341 47.0519 57.192 48.1106 57.8656C48.3742 58.0311 48.6519 58.1798 48.9212 58.3397C49.1904 58.4995 49.4597 58.6622 49.7458 58.794L50.5872 59.1979L51.0108 59.4027C51.1538 59.4644 51.2912 59.5177 51.4483 59.5738C52.0253 59.818 52.6152 60.0305 53.2153 60.2105L54.1157 60.4909C54.4186 60.5695 54.7243 60.6368 55.0272 60.7125C56.2509 60.9843 57.4948 61.156 58.7464 61.2258C61.2553 61.36 63.7688 61.066 66.1791 60.3563C69.8097 59.2808 73.108 57.3012 75.7649 54.6032C78.4217 51.9051 80.3503 48.5768 81.3698 44.93L81.3754 44.9047Z" fill="#263238"/>
<path d="M73.8053 59.7954C72.4436 60.8304 70.9623 61.6977 69.3934 62.3786C66.2406 63.7584 62.8083 64.3799 59.3719 64.1933C58.9455 64.1569 58.5304 64.1344 58.0929 64.0839C57.6553 64.0334 57.2515 63.9774 56.8251 63.9044C56.3988 63.8315 55.9837 63.7389 55.5714 63.6464L54.3345 63.3126L55.5854 63.5735C56.0033 63.6436 56.4268 63.7025 56.8448 63.7698C57.2627 63.8371 57.6862 63.8624 58.1097 63.9072C58.5332 63.9521 58.9512 63.9521 59.3803 63.9774C61.0719 64.0317 62.7644 63.9047 64.4289 63.5987C66.0975 63.3001 67.7297 62.8253 69.298 62.1823C70.8757 61.5377 72.3855 60.7382 73.8053 59.7954Z" fill="#263238"/>
<path d="M75.3649 39.6765C75.1929 41.2554 74.7845 42.7994 74.1532 44.2568L76.9973 46.2987L75.5248 48.8454L72.3441 47.4065C71.4041 48.6873 70.2793 49.8216 69.0064 50.7723L70.4481 53.9641L67.9013 55.4311L65.8651 52.601C64.4118 53.2405 62.8706 53.6574 61.2932 53.8379L60.9454 57.3299H58.006L57.6582 53.8576C56.0807 53.6848 54.5379 53.2774 53.0808 52.6487L51.0389 55.49L48.4922 54.0202L49.9254 50.8368C48.6458 49.8965 47.5118 48.7728 46.5597 47.5019L43.3706 48.9155L41.9065 46.3912L44.7422 44.3549C44.1015 42.902 43.6836 41.3607 43.5025 39.7831L40.0049 39.4241V36.4847L43.48 36.1397C43.6523 34.56 44.0608 33.0151 44.6917 31.5567L41.8476 29.5148L43.3201 26.9708L46.5008 28.4069C47.4399 27.1254 48.5648 25.991 49.8385 25.0411L48.4193 21.8577L50.966 20.3852L52.9995 23.218C54.4517 22.583 55.9908 22.1689 57.5657 21.9895L57.9107 18.5088H60.8501L61.1979 21.9811C62.7759 22.1512 64.3191 22.5587 65.7753 23.19L67.82 20.3487L70.3639 21.8212L68.9307 25.0019C70.2103 25.9432 71.3444 27.0679 72.2964 28.3396L75.4883 26.8979L76.958 29.4475L74.1224 31.4809C74.7568 32.9301 75.1691 34.4666 75.3452 36.0387L78.8344 36.3893V39.3316L75.3649 39.6765Z" fill="#B19CFE"/>
<path d="M40.1422 24.7942C39.8218 26.4767 39.1696 28.0785 38.2237 29.5063L40.2993 32.0671L37.0569 35.1523L34.7542 33.074C33.2939 34.077 31.645 34.7726 29.9075 35.1187L29.585 38.1871L25.1394 38.0693L24.9767 35.172C23.1754 34.8488 21.4638 34.145 19.9561 33.1076L17.6815 34.9504L14.5962 31.7136L16.4838 29.6241C15.4477 28.0965 14.7514 26.3643 14.4419 24.5446L11.5586 24.2333L11.6764 19.7681L14.5485 19.6222C14.9195 17.8457 15.6612 16.1674 16.725 14.697L14.8009 12.3241L18.0405 9.23887L20.3123 11.2892C21.7909 10.348 23.4441 9.71459 25.173 9.42679L25.5124 6.18726L29.9749 6.30506L30.1403 9.55861C31.8024 9.93097 33.3744 10.6288 34.7654 11.6117L37.4188 9.45764L40.49 12.7L38.2462 15.1906C39.1699 16.5943 39.812 18.1642 40.1366 19.8129L43.5444 20.1691L43.4266 24.6316L40.1422 24.7942Z" fill="#455A64"/>
<path d="M29.1196 26.6425L25.81 26.6116V26.5555C25.7097 26.0296 25.5795 25.5099 25.4201 24.9988C25.2592 24.7145 25.0416 24.4662 24.7806 24.2696C24.2157 23.8108 23.7502 23.2416 23.4126 22.5968C23.0751 21.9521 22.8725 21.2453 22.8173 20.5196C22.7723 19.8422 22.8643 19.1628 23.0879 18.5218C23.3115 17.8809 23.6621 17.2916 24.1187 16.7892C24.5632 16.3149 25.1012 15.938 25.6988 15.6822C26.2964 15.4264 26.9405 15.2974 27.5905 15.3032C28.2405 15.309 28.8823 15.4495 29.4752 15.7159C30.0681 15.9823 30.5993 16.3688 31.0353 16.8509C31.4836 17.3615 31.8242 17.9573 32.0367 18.6026C32.2493 19.2479 32.3294 19.9295 32.2722 20.6065C32.2016 21.3323 31.9836 22.036 31.6315 22.6745C31.2795 23.3131 30.8008 23.873 30.2247 24.3201C29.9598 24.5111 29.7381 24.7557 29.574 25.0381C29.4045 25.5458 29.264 26.0627 29.1533 26.5864L29.1196 26.6425ZM25.925 26.477L29.0102 26.505C29.1174 25.9921 29.256 25.4863 29.4253 24.9904C29.5948 24.6858 29.8294 24.4224 30.1125 24.2191C30.8446 23.5768 31.8459 22.6961 32.1123 20.5953C32.1679 19.9378 32.09 19.2759 31.8832 18.6493C31.6764 18.0227 31.3451 17.4444 30.9091 16.9491C30.4863 16.4817 29.9712 16.107 29.3963 15.8488C28.8213 15.5906 28.1991 15.4544 27.5689 15.4488C26.9386 15.4433 26.3141 15.5685 25.7347 15.8166C25.1554 16.0647 24.6337 16.4303 24.2028 16.8902C23.7587 17.3773 23.4174 17.9492 23.1996 18.5714C22.9818 19.1936 22.8918 19.8534 22.9351 20.5112C23.1623 22.6148 24.1467 23.5151 24.8676 24.1714C25.1459 24.3805 25.3756 24.6475 25.5407 24.954C25.7002 25.4532 25.8285 25.9618 25.925 26.477Z" fill="white"/>
<path d="M25.9337 21.444L25.7266 21.4807L26.6282 26.5735L26.8354 26.5369L25.9337 21.444Z" fill="white"/>
<path d="M29.192 21.4745L28.1963 26.5498L28.4027 26.5903L29.3984 21.515L29.192 21.4745Z" fill="white"/>
<path d="M27.5459 23.1816C27.2458 23.1816 26.9849 22.9011 26.8082 22.5702C26.7746 22.6126 26.732 22.6472 26.6836 22.6715C26.6351 22.6957 26.5819 22.709 26.5278 22.7104C26.0397 22.7104 25.8546 21.7091 25.8462 21.667L25.95 21.6502C25.9976 21.9139 26.194 22.6038 26.5278 22.6066C26.5721 22.6011 26.6148 22.5862 26.6529 22.563C26.6911 22.5398 26.724 22.5088 26.7493 22.472C26.6113 22.1902 26.5339 21.8825 26.5221 21.5689C26.5221 21.2884 26.6343 21.1257 26.8223 21.1257C26.8789 21.1236 26.9351 21.1371 26.9846 21.1648C27.034 21.1925 27.0749 21.2333 27.1027 21.2828C27.2514 21.5464 27.1336 22.0625 26.9401 22.3879C26.9215 22.4224 26.8999 22.4553 26.8755 22.486C27.0466 22.8142 27.285 23.075 27.5431 23.0778C27.7787 23.0778 27.9862 22.8675 28.1377 22.5842C27.9465 22.3387 27.8473 22.0341 27.8572 21.7231C27.8572 21.3613 28.0003 21.1369 28.2218 21.1397C28.4014 21.1397 28.5023 21.3192 28.5023 21.6278C28.4881 21.9531 28.4069 22.272 28.2639 22.5646C28.3454 22.645 28.4551 22.6903 28.5696 22.6908C28.8501 22.6908 29.1138 22.0036 29.1923 21.7371L29.2933 21.7652C29.2624 21.8718 28.9819 22.8002 28.5668 22.7974C28.4363 22.7932 28.3113 22.7436 28.2134 22.6571C28.1586 22.7959 28.068 22.9176 27.9507 23.0097C27.8334 23.1019 27.6937 23.1612 27.5459 23.1816ZM28.2218 21.2435C28.0311 21.2435 27.9638 21.5015 27.961 21.7231C27.9572 21.9942 28.0375 22.2598 28.191 22.4832C28.316 22.2146 28.3865 21.9238 28.3985 21.6278C28.3985 21.5128 28.3845 21.2435 28.2218 21.2435ZM26.8195 21.2435C26.6596 21.2435 26.6259 21.4286 26.6231 21.5857C26.634 21.865 26.6997 22.1395 26.8166 22.3935L26.8419 22.3486C27.0186 22.0681 27.1224 21.5689 27.0018 21.3501C26.9844 21.317 26.9581 21.2895 26.9259 21.2706C26.8937 21.2518 26.8568 21.2424 26.8195 21.2435Z" fill="white"/>
<path d="M29.5009 27.2793L25.4199 27.2429V26.3313L29.5037 26.3678L29.5009 27.2793ZM25.5602 27.1026L29.3607 27.1391V26.508L25.5658 26.4771L25.5602 27.1026Z" fill="white"/>
<path d="M29.4925 28.1741L25.4199 28.1376V27.2261L29.5037 27.2625L29.4925 28.1741ZM25.5517 27.9974L29.355 28.0339V27.4028L25.5517 27.3691V27.9974Z" fill="white"/>
<path d="M29.4842 29.0686L25.4004 29.0322V28.1206L29.4842 28.1599V29.0686ZM25.5434 28.8919L29.3467 28.9284V28.2973L25.5434 28.2636V28.8919Z" fill="white"/>
<path d="M65.8089 32.8721L63.0405 30.5104L63.0742 30.4572C63.1022 30.4151 63.7586 29.453 64.6954 29.3352C64.9345 29.3088 65.1766 29.3347 65.4047 29.4113C65.6328 29.4878 65.8416 29.6131 66.0164 29.7784C66.2092 29.9263 66.3677 30.1142 66.481 30.3291C66.5943 30.5441 66.6597 30.7811 66.6727 31.0237C66.7092 31.9802 65.8902 32.802 65.8565 32.8356L65.8089 32.8721ZM63.2284 30.4852L65.8004 32.6785C65.9687 32.4934 66.5633 31.7894 66.5325 31.0153C66.5193 30.7927 66.4584 30.5755 66.3539 30.3786C66.2493 30.1816 66.1036 30.0094 65.9267 29.8738C65.7667 29.7214 65.5754 29.6058 65.3661 29.5351C65.1568 29.4644 64.9346 29.4402 64.715 29.4643C63.9689 29.5624 63.3855 30.2861 63.2369 30.4852H63.2284Z" fill="white"/>
<path d="M55.3414 45.5583L55.232 45.4685L65.7753 32.7123L63.2089 30.5246L52.6685 43.278L52.5591 43.1882L63.192 30.3254L65.9716 32.6955L65.9295 32.7488L55.3414 45.5583Z" fill="white"/>
<path d="M65.7444 33.4359L62.5161 30.6844L63.0266 30.0674L66.2521 32.8217L65.7444 33.4359ZM62.7237 30.6648L65.736 33.2368L66.0698 32.8357L63.0546 30.2637L62.7237 30.6648Z" fill="white"/>
<path d="M65.2786 33.9967L62.0503 31.2452L62.5608 30.6282L65.7891 33.3797L65.2786 33.9967ZM62.2466 31.2284L65.2478 33.7976L65.5815 33.3965L62.5664 30.8273L62.2466 31.2284Z" fill="white"/>
<path d="M52.1606 46.5315L52.5701 43.2302H52.6262L53.1339 43.1461L53.2152 43.1321V43.6594L53.7482 43.5865V44.1138L54.2642 44.0268V44.5541L54.7747 44.4644V44.9945L55.2066 44.9187H55.2852V45.5835L52.1606 46.5315ZM52.6964 43.3621L52.3261 46.3323L52.9628 46.136L55.1477 45.4544V45.0562L54.7186 45.1319L54.6373 45.1459V44.6158L54.124 44.7056V44.1783L53.6079 44.2652V43.7379L53.0918 43.8249V43.306L52.6964 43.3621Z" fill="white"/>
<path d="M52.2109 46.436L52.3792 45.1094L53.4787 46.0462L52.2109 46.436ZM52.4914 45.3842L52.382 46.2397L53.1982 45.9873L52.4914 45.3842Z" fill="white"/>
<path d="M54.0005 43.0731C54.668 42.1419 55.3692 41.2359 56.076 40.3356C56.7828 39.4353 57.5121 38.5546 58.2301 37.6598C58.9481 36.7651 59.697 35.9068 60.4487 35.043C61.2004 34.1791 61.9605 33.3208 62.7486 32.4878C62.0811 33.4218 61.3799 34.3249 60.6731 35.2281C59.9663 36.1312 59.237 37.0091 58.519 37.901C57.801 38.793 57.0521 39.6568 56.2976 40.5179C55.5431 41.379 54.7886 42.2401 54.0005 43.0731Z" fill="white"/>
<path d="M55.2153 44.0826C55.8857 43.1486 56.5869 42.2455 57.2909 41.3423C57.9949 40.4392 58.7269 39.5613 59.445 38.6693C60.163 37.7774 60.9119 36.9136 61.6664 36.0497C62.4208 35.1858 63.1753 34.3275 63.9635 33.4973C63.2959 34.4285 62.5947 35.3345 61.8879 36.2348C61.1811 37.1351 60.4519 38.0186 59.7339 38.9078C59.0158 39.7969 58.2669 40.6636 57.5153 41.5274C56.7636 42.3913 55.9923 43.2496 55.2153 44.0826Z" fill="white"/>
<path d="M103.757 24.7942C103.437 26.4767 102.785 28.0785 101.839 29.5063L103.915 32.0671L100.672 35.1523L98.3694 33.074C96.9113 34.0826 95.2633 34.784 93.5256 35.1355L93.203 38.2039L88.7406 38.0861L88.5919 35.172C86.7906 34.8488 85.079 34.145 83.5714 33.1076L81.2967 34.9504L78.2114 31.7137L80.099 29.6241C79.062 28.0969 78.3657 26.3646 78.0572 24.5446L75.1738 24.2333L75.2916 19.7681L78.1637 19.6222C78.5348 17.8452 79.2775 16.1667 80.3431 14.697L78.4302 12.3298L81.6697 9.24448L83.9416 11.2948C85.4202 10.3536 87.0734 9.72021 88.8023 9.4324L89.1417 6.19287L93.6041 6.31067L93.7696 9.56423C95.4262 9.93726 96.993 10.633 98.3807 11.6117L101.031 9.45765L104.116 12.7L101.873 15.1906C102.796 16.5943 103.438 18.1642 103.763 19.8129L107.171 20.1691L107.039 24.6203L103.757 24.7942Z" fill="#455A64"/>
<path d="M87.5096 29.7841H86.8252V16.5791H87.5096V29.7841ZM86.9654 29.6438H87.3693V16.7193H86.9654V29.6438Z" fill="white"/>
<path d="M96.7399 23.2515H87.3691V16.8762H96.7399L93.5453 20.0625L96.7399 23.2515ZM87.5094 23.1113H96.4006L93.3461 20.0625L96.4006 17.0165H87.5094V23.1113Z" fill="white"/>
<path d="M88.9514 68.5381H29.7646V72.2769H88.9514V68.5381Z" fill="white"/>
<path d="M88.951 72.274L29.7699 72.3749H29.6689V72.274V68.538V68.4314H29.7755L59.3577 68.4651L88.951 68.5268V72.274ZM88.951 72.274V68.538L59.3577 68.6109L29.7643 68.6418L29.8681 68.538V72.274L29.7671 72.1758L88.951 72.274Z" fill="#263238"/>
<path d="M68.782 69.1973H30.4854V71.615H68.782V69.1973Z" fill="#EEA886"/>
<path opacity="0.1" d="M34.3363 69.1973H32.3533L30.4854 71.615H32.4683L34.3363 69.1973Z" fill="black"/>
<path opacity="0.1" d="M38.1648 69.1973H36.1818L34.311 71.615H36.294L38.1648 69.1973Z" fill="black"/>
<path opacity="0.1" d="M41.9934 69.1973H40.0104L38.1396 71.615H40.1226L41.9934 69.1973Z" fill="black"/>
<path opacity="0.1" d="M45.8191 69.1973H43.8361L41.9653 71.615H43.9483L45.8191 69.1973Z" fill="black"/>
<path opacity="0.1" d="M49.6477 69.1973H47.6647L45.7939 71.615H47.7769L49.6477 69.1973Z" fill="black"/>
<path opacity="0.1" d="M53.4731 69.1973H51.4929L49.6221 71.615H51.6051L53.4731 69.1973Z" fill="black"/>
<path opacity="0.1" d="M57.3015 69.1973H55.3186L53.4478 71.615H55.4307L57.3015 69.1973Z" fill="black"/>
<path opacity="0.1" d="M61.1302 69.1973H59.1472L57.2764 71.615H59.2594L61.1302 69.1973Z" fill="black"/>
<path opacity="0.1" d="M64.956 69.1973H62.973L61.105 71.615H63.088L64.956 69.1973Z" fill="black"/>
<path opacity="0.1" d="M68.7788 69.2057V69.1973H66.8015L64.9307 71.615H66.9137L68.7788 69.2057Z" fill="black"/>
<path opacity="0.1" d="M68.7787 71.6146V71.5896L68.7593 71.6146H68.7787Z" fill="black"/>
<path d="M54.3089 74.7393H54.0284V75.2049C54.0284 75.2204 54.0254 75.2357 54.0195 75.25C54.0136 75.2643 54.0049 75.2773 53.9939 75.2882C53.983 75.2992 53.97 75.3079 53.9557 75.3138C53.9414 75.3197 53.9261 75.3227 53.9106 75.3227C53.8791 75.3227 53.8489 75.3104 53.8263 75.2884C53.8038 75.2664 53.7908 75.2364 53.79 75.2049V73.9372C53.79 73.9215 53.7932 73.9059 53.7993 73.8914C53.8054 73.877 53.8143 73.8638 53.8255 73.8529C53.8368 73.8419 53.8501 73.8333 53.8647 73.8275C53.8793 73.8218 53.8949 73.819 53.9106 73.8194H54.3089C54.4309 73.8194 54.5479 73.8678 54.6342 73.9541C54.7204 74.0404 54.7689 74.1574 54.7689 74.2794C54.7689 74.4013 54.7204 74.5183 54.6342 74.6046C54.5479 74.6909 54.4309 74.7393 54.3089 74.7393ZM54.0425 74.5009H54.3089C54.3677 74.5009 54.4241 74.4776 54.4656 74.436C54.5072 74.3945 54.5305 74.3381 54.5305 74.2794C54.5305 74.2206 54.5072 74.1642 54.4656 74.1227C54.4241 74.0811 54.3677 74.0578 54.3089 74.0578H54.0284L54.0425 74.5009Z" fill="black"/>
<path d="M56.0425 75.1432C56.0477 75.1581 56.0499 75.1739 56.0489 75.1897C56.0479 75.2055 56.0438 75.2209 56.0367 75.235C56.0296 75.2491 56.0198 75.2617 56.0078 75.272C55.9958 75.2822 55.9818 75.2899 55.9667 75.2947H55.9219C55.8922 75.2956 55.863 75.2878 55.8377 75.2723C55.8089 75.2526 55.7849 75.2268 55.7676 75.1965C55.7341 75.1148 55.7188 75.0267 55.7227 74.9385C55.7242 74.9057 55.7153 74.8734 55.6975 74.8459C55.681 74.8207 55.6589 74.7996 55.633 74.7842C55.5964 74.7598 55.5554 74.7426 55.5124 74.7337H55.2599V75.1993C55.2599 75.215 55.2568 75.2306 55.2507 75.2451C55.2446 75.2595 55.2357 75.2727 55.2244 75.2836C55.2132 75.2946 55.1999 75.3032 55.1853 75.309C55.1706 75.3147 55.155 75.3175 55.1393 75.3171C55.1239 75.3171 55.1085 75.3141 55.0942 75.3082C55.0799 75.3022 55.067 75.2936 55.056 75.2826C55.0451 75.2717 55.0364 75.2587 55.0305 75.2444C55.0246 75.2301 55.0215 75.2148 55.0215 75.1993V73.9316C55.0211 73.916 55.0239 73.9005 55.0297 73.886C55.0355 73.8716 55.0442 73.8584 55.0552 73.8474C55.0662 73.8364 55.0793 73.8277 55.0938 73.8219C55.1083 73.8162 55.1237 73.8134 55.1393 73.8138H55.5236C55.5842 73.8138 55.6443 73.8257 55.7003 73.849C55.7562 73.8723 55.8071 73.9065 55.8498 73.9495C55.8926 73.9925 55.9264 74.0435 55.9494 74.0997C55.9723 74.1558 55.9839 74.2159 55.9836 74.2766C55.9836 74.3439 55.9685 74.4103 55.9394 74.471C55.9102 74.5317 55.8678 74.5851 55.8153 74.6272C55.844 74.6498 55.8694 74.6762 55.891 74.7057C55.9366 74.7748 55.961 74.8557 55.9611 74.9385C55.958 74.9805 55.958 75.0227 55.9611 75.0647C55.9803 75.0697 55.9979 75.0795 56.0121 75.0933C56.0264 75.107 56.0368 75.1242 56.0425 75.1432ZM55.7424 74.2822C55.7427 74.2528 55.7373 74.2237 55.7263 74.1965C55.7153 74.1693 55.6991 74.1445 55.6785 74.1237C55.6578 74.1028 55.6333 74.0862 55.6062 74.0749C55.5792 74.0636 55.5501 74.0578 55.5208 74.0578H55.2571V74.5009H55.5208C55.5791 74.5009 55.635 74.478 55.6765 74.437C55.7179 74.3961 55.7416 74.3404 55.7424 74.2822Z" fill="black"/>
<path d="M57.5402 74.0073C57.6787 74.1541 57.7558 74.3483 57.7558 74.5501C57.7558 74.7518 57.6787 74.946 57.5402 75.0928C57.4752 75.1645 57.396 75.2219 57.3076 75.2615C57.2193 75.3011 57.1237 75.322 57.0269 75.3228C56.928 75.3225 56.8301 75.302 56.7394 75.2624C56.6488 75.2229 56.5671 75.1651 56.4996 75.0928C56.3624 74.9454 56.2861 74.7515 56.2861 74.5501C56.2861 74.3487 56.3624 74.1548 56.4996 74.0073C56.5667 73.9344 56.6482 73.8764 56.739 73.8368C56.8298 73.7972 56.9279 73.7769 57.0269 73.7774C57.1238 73.7777 57.2196 73.7983 57.308 73.8379C57.3964 73.8775 57.4755 73.9352 57.5402 74.0073ZM57.5122 74.5487C57.5118 74.4096 57.4598 74.2757 57.3663 74.1728C57.3227 74.1251 57.2696 74.087 57.2105 74.061C57.1513 74.0349 57.0874 74.0214 57.0227 74.0214C56.9581 74.0214 56.8942 74.0349 56.835 74.061C56.7758 74.087 56.7228 74.1251 56.6791 74.1728C56.5861 74.2759 56.5346 74.4098 56.5346 74.5487C56.5346 74.6875 56.5861 74.8214 56.6791 74.9245C56.7223 74.973 56.7752 75.0118 56.8344 75.0384C56.8937 75.0649 56.9578 75.0787 57.0227 75.0787C57.0876 75.0787 57.1518 75.0649 57.211 75.0384C57.2702 75.0118 57.3232 74.973 57.3663 74.9245C57.4598 74.8216 57.5118 74.6877 57.5122 74.5487Z" fill="black"/>
<path d="M58.0479 74.5487C58.0523 74.3426 58.1372 74.1464 58.2846 74.0022C58.4319 73.858 58.6299 73.7773 58.836 73.7774C59.0152 73.7763 59.1897 73.8345 59.3324 73.9428C59.3563 73.9644 59.3717 73.9937 59.3759 74.0256C59.38 74.0575 59.3725 74.0898 59.3549 74.1167C59.3341 74.1417 59.3046 74.1579 59.2723 74.162C59.2401 74.1662 59.2075 74.158 59.181 74.1392C59.0838 74.0599 58.9614 74.0181 58.836 74.0214C58.692 74.0212 58.5534 74.0764 58.4489 74.1756C58.3992 74.2245 58.3596 74.2827 58.3326 74.347C58.3056 74.4113 58.2917 74.4803 58.2917 74.5501C58.2917 74.6198 58.3056 74.6888 58.3326 74.7531C58.3596 74.8174 58.3992 74.8757 58.4489 74.9245C58.5543 75.0223 58.6923 75.0773 58.836 75.0788C58.9609 75.079 59.0823 75.0376 59.181 74.961C59.2079 74.9433 59.2402 74.9359 59.2721 74.94C59.304 74.9441 59.3334 74.9595 59.3549 74.9834C59.3729 75.0097 59.3806 75.0417 59.3765 75.0733C59.3723 75.1049 59.3567 75.1338 59.3324 75.1545C59.1907 75.265 59.0157 75.3243 58.836 75.3228C58.6292 75.3236 58.4304 75.2427 58.2828 75.0977C58.1352 74.9528 58.0508 74.7555 58.0479 74.5487Z" fill="black"/>
<path d="M59.7701 75.2049V73.9372C59.7697 73.9216 59.7725 73.9061 59.7782 73.8916C59.784 73.8772 59.7927 73.864 59.8037 73.853C59.8147 73.842 59.8279 73.8333 59.8423 73.8276C59.8568 73.8218 59.8723 73.819 59.8879 73.8194H60.5891C60.6203 73.8194 60.6503 73.8318 60.6724 73.8539C60.6944 73.876 60.7069 73.9059 60.7069 73.9372C60.7072 73.9529 60.7045 73.9685 60.6987 73.9831C60.693 73.9977 60.6843 74.011 60.6734 74.0223C60.6624 74.0335 60.6493 74.0424 60.6348 74.0485C60.6203 74.0546 60.6048 74.0578 60.5891 74.0578H60.0085V74.4392H60.5077C60.5387 74.4399 60.5683 74.4526 60.5902 74.4745C60.6122 74.4965 60.6248 74.526 60.6255 74.557C60.6259 74.5727 60.6231 74.5884 60.6174 74.603C60.6116 74.6176 60.603 74.6309 60.592 74.6421C60.581 74.6534 60.5679 74.6623 60.5535 74.6684C60.539 74.6745 60.5234 74.6776 60.5077 74.6776H60.0085V75.0731H60.5891C60.6175 75.0775 60.6435 75.0919 60.6622 75.1138C60.681 75.1356 60.6913 75.1635 60.6913 75.1923C60.6913 75.2211 60.681 75.249 60.6622 75.2708C60.6435 75.2927 60.6175 75.3071 60.5891 75.3115H59.8879C59.8585 75.3116 59.8301 75.3008 59.8083 75.2811C59.7865 75.2613 59.7729 75.2342 59.7701 75.2049Z" fill="black"/>
<path d="M60.996 74.9496C61.015 74.9273 61.0419 74.9131 61.0712 74.91C61.1004 74.9068 61.1297 74.915 61.153 74.9328C61.2672 75.0322 61.4114 75.0905 61.5625 75.0983C61.662 75.103 61.7604 75.0754 61.843 75.0197C61.8698 75.0034 61.8922 74.9809 61.9083 74.954C61.9244 74.9271 61.9338 74.8967 61.9356 74.8655C61.9351 74.8408 61.9283 74.8167 61.9159 74.7953C61.8981 74.7705 61.8763 74.7487 61.8514 74.7308C61.7594 74.6814 61.6599 74.6473 61.5569 74.6299C61.4604 74.6148 61.3661 74.5874 61.2764 74.5485C61.1954 74.5125 61.1263 74.4542 61.0773 74.3802C61.0459 74.3267 61.0295 74.2656 61.0296 74.2035C61.0317 74.1415 61.0482 74.0807 61.0779 74.0262C61.1076 73.9716 61.1497 73.9248 61.2007 73.8894C61.3093 73.814 61.4388 73.7747 61.571 73.7772C61.7408 73.7856 61.9041 73.8452 62.0393 73.9483C62.0635 73.9643 62.0803 73.9893 62.0861 74.0176C62.0919 74.046 62.0862 74.0756 62.0702 74.0998C62.0628 74.1122 62.0529 74.1231 62.0411 74.1316C62.0293 74.1401 62.0159 74.1461 62.0017 74.1493C61.9876 74.1524 61.9729 74.1527 61.9586 74.1499C61.9443 74.1472 61.9308 74.1416 61.9187 74.1334C61.8194 74.0534 61.6981 74.0054 61.571 73.996C61.4856 73.9935 61.4019 74.0192 61.3325 74.0689C61.3087 74.0829 61.2886 74.1024 61.2739 74.1259C61.2593 74.1493 61.2505 74.176 61.2484 74.2035C61.2476 74.2245 61.2535 74.2451 61.2652 74.2624C61.2794 74.2851 61.2986 74.3043 61.3213 74.3185C61.4077 74.3684 61.503 74.4008 61.6018 74.4139C61.7031 74.4325 61.8019 74.4626 61.8963 74.5036C61.9838 74.5419 62.0587 74.6041 62.1123 74.6832C62.1465 74.7377 62.164 74.8011 62.1628 74.8655C62.1609 74.9316 62.1435 74.9963 62.1118 75.0543C62.0801 75.1123 62.0351 75.162 61.9804 75.1992C61.8633 75.2795 61.7242 75.3216 61.5822 75.3198C61.3765 75.3141 61.1788 75.239 61.0212 75.1067C60.9976 75.0888 60.9817 75.0625 60.977 75.0332C60.9723 75.0039 60.9791 74.974 60.996 74.9496Z" fill="black"/>
<path d="M62.4038 74.9496C62.4229 74.9273 62.4498 74.9131 62.479 74.91C62.5082 74.9068 62.5375 74.915 62.5609 74.9328C62.6765 75.0317 62.8214 75.0899 62.9732 75.0983C63.0681 75.1005 63.1612 75.0731 63.2397 75.0197C63.2664 75.0034 63.2888 74.9809 63.305 74.954C63.3211 74.9271 63.3305 74.8967 63.3322 74.8655C63.3331 74.8406 63.3262 74.8161 63.3126 74.7953C63.2968 74.7698 63.2757 74.7478 63.2509 74.7308C63.1589 74.6814 63.0594 74.6473 62.9564 74.6299C62.8598 74.6148 62.7656 74.5874 62.6759 74.5485C62.5949 74.5125 62.5258 74.4542 62.4768 74.3802C62.4445 74.3269 62.4271 74.2659 62.4263 74.2035C62.4282 74.1411 62.445 74.0801 62.4752 74.0254C62.5055 73.9708 62.5483 73.9242 62.6002 73.8894C62.7087 73.814 62.8383 73.7747 62.9704 73.7772C63.1403 73.7856 63.3036 73.8452 63.4388 73.9483C63.4593 73.9662 63.4726 73.991 63.4762 74.018C63.4798 74.045 63.4734 74.0724 63.4583 74.095C63.4432 74.1177 63.4204 74.1341 63.3941 74.1411C63.3678 74.1482 63.3398 74.1454 63.3154 74.1334C63.2172 74.0534 63.0968 74.0055 62.9704 73.996C62.8843 73.9939 62.7998 74.0195 62.7292 74.0689C62.706 74.0834 62.6866 74.1031 62.6724 74.1265C62.6583 74.1499 62.6499 74.1763 62.6479 74.2035C62.6471 74.2245 62.6529 74.2451 62.6647 74.2624C62.6781 74.2858 62.6974 74.3051 62.7208 74.3185C62.8071 74.3684 62.9024 74.4008 63.0013 74.4139C63.1025 74.4325 63.2014 74.4626 63.2958 74.5036C63.3833 74.5419 63.4582 74.6041 63.5117 74.6832C63.5448 74.7382 63.5623 74.8012 63.5622 74.8655C63.5603 74.9318 63.5425 74.9968 63.5103 75.0549C63.4781 75.113 63.4324 75.1625 63.3771 75.1992C63.2611 75.2798 63.1228 75.3219 62.9816 75.3198C62.776 75.3141 62.5783 75.239 62.4207 75.1067C62.3983 75.0876 62.3842 75.0607 62.381 75.0315C62.3779 75.0023 62.3861 74.973 62.4038 74.9496Z" fill="black"/>
<path d="M63.9968 75.0171C64.0395 75.0178 64.0801 75.0353 64.11 75.0657C64.1399 75.0961 64.1567 75.1371 64.1567 75.1798C64.1559 75.2217 64.1388 75.2616 64.1089 75.291C64.079 75.3204 64.0387 75.3368 63.9968 75.3368C63.976 75.3372 63.9552 75.3334 63.9358 75.3257C63.9165 75.318 63.8988 75.3065 63.8839 75.2918C63.869 75.2772 63.8572 75.2598 63.8492 75.2405C63.8411 75.2213 63.8369 75.2006 63.8369 75.1798C63.8366 75.1585 63.8404 75.1374 63.8483 75.1177C63.8562 75.098 63.8679 75.08 63.8828 75.0649C63.8976 75.0498 63.9154 75.0377 63.935 75.0295C63.9546 75.0213 63.9756 75.0171 63.9968 75.0171Z" fill="black"/>
<path d="M64.4905 75.0171C64.5331 75.0178 64.5738 75.0353 64.6037 75.0657C64.6336 75.0961 64.6503 75.1371 64.6503 75.1798C64.6496 75.2217 64.6324 75.2616 64.6025 75.291C64.5726 75.3204 64.5324 75.3368 64.4905 75.3368C64.4696 75.3372 64.4489 75.3334 64.4295 75.3257C64.4101 75.318 64.3925 75.3065 64.3776 75.2918C64.3627 75.2772 64.3509 75.2598 64.3428 75.2405C64.3347 75.2213 64.3306 75.2006 64.3306 75.1798C64.3302 75.1585 64.3341 75.1374 64.3419 75.1177C64.3498 75.098 64.3615 75.08 64.3764 75.0649C64.3913 75.0498 64.409 75.0377 64.4286 75.0295C64.4482 75.0213 64.4692 75.0171 64.4905 75.0171Z" fill="black"/>
<path d="M64.9841 75.0171C65.0268 75.0178 65.0674 75.0353 65.0973 75.0657C65.1272 75.0961 65.144 75.1371 65.144 75.1798C65.1433 75.2217 65.1261 75.2616 65.0962 75.291C65.0663 75.3204 65.026 75.3368 64.9841 75.3368C64.9633 75.3372 64.9425 75.3334 64.9231 75.3257C64.9038 75.318 64.8861 75.3065 64.8712 75.2918C64.8564 75.2772 64.8445 75.2598 64.8365 75.2405C64.8284 75.2213 64.8242 75.2006 64.8242 75.1798C64.8239 75.1585 64.8277 75.1374 64.8356 75.1177C64.8435 75.098 64.8552 75.08 64.8701 75.0649C64.885 75.0498 64.9027 75.0377 64.9223 75.0295C64.9419 75.0213 64.9629 75.0171 64.9841 75.0171Z" fill="black"/>
<path d="M107.107 94.6869C107.193 92.4739 107.163 90.2578 107.017 88.048C106.689 83.4901 105.993 78.9662 104.936 74.5205C104.355 72.0158 103.643 69.556 102.897 67.0962C102.874 67.0233 102.756 67.0429 102.776 67.1214C105.079 75.7882 106.966 84.7299 106.837 93.7389C106.801 96.2632 106.509 98.737 106.277 101.242C106.277 101.309 106.38 101.334 106.397 101.267C106.825 99.0985 107.063 96.8968 107.107 94.6869Z" fill="#23D0D4"/>
<path d="M102.776 67.1213C102.776 67.1213 99.2894 75.9705 100.072 78.06C100.855 80.1496 102.462 80.5843 102.462 80.5843C102.462 80.5843 100.327 83.6303 101.819 86.4884C103.312 89.3465 106.621 89.2091 106.84 92.4486C106.84 92.4374 107.039 78.893 102.776 67.1213Z" fill="#23D0D4"/>
<path d="M106.462 86.8447C106.467 86.8293 106.467 86.8124 106.462 86.797C106.003 80.7562 104.869 74.7858 103.079 68.9978C103.079 68.9782 103.046 68.9838 103.051 68.9978C103.741 71.5876 104.352 74.1895 104.883 76.8035C104.413 76.3608 103.841 76.0426 103.217 75.878C103.217 75.878 103.2 75.878 103.217 75.8948C103.872 76.1362 104.461 76.5293 104.936 77.042C105.037 77.5552 105.138 78.0685 105.216 78.5818C104.44 77.7123 103.357 77.2804 102.277 76.8681C102.26 76.8681 102.255 76.8877 102.277 76.8933C103.399 77.3505 104.521 77.9423 105.287 78.9128C105.552 80.3787 105.786 81.8522 105.988 83.3331C105.425 82.7434 104.703 82.3293 103.909 82.1411C103.884 82.1411 103.87 82.1719 103.895 82.1775C104.714 82.4149 105.447 82.8845 106.005 83.5294C106.075 84.0511 106.142 84.57 106.204 85.0917C105.767 84.7238 105.275 84.4275 104.745 84.2138C104.731 84.2138 104.723 84.2306 104.745 84.2362C105.285 84.4694 105.78 84.796 106.207 85.2011H106.223C106.282 85.6975 106.341 86.1912 106.389 86.6876C105.604 85.739 104.585 85.0119 103.433 84.5784C103.41 84.5784 103.399 84.6037 103.433 84.6121C104.57 85.1154 105.569 85.885 106.347 86.8559C106.355 86.8669 106.366 86.875 106.38 86.8791C106.393 86.8831 106.407 86.8829 106.42 86.8784C106.495 87.6413 106.563 88.4014 106.619 89.1671H106.636C106.58 88.407 106.526 87.6216 106.462 86.8447Z" fill="#263238"/>
<path d="M103.673 75.0002C103.043 74.6081 102.323 74.3832 101.581 74.3467C101.577 74.3467 101.574 74.3481 101.571 74.3508C101.568 74.3534 101.567 74.357 101.567 74.3607C101.567 74.3644 101.568 74.368 101.571 74.3706C101.574 74.3732 101.577 74.3747 101.581 74.3747C102.298 74.5072 102.994 74.7345 103.651 75.0507C103.673 75.0675 103.687 75.0198 103.673 75.0002Z" fill="#263238"/>
<path d="M104.083 84.3709C103.599 84.094 103.065 83.9122 102.513 83.8352C102.511 83.8352 102.509 83.8356 102.507 83.8363C102.505 83.837 102.504 83.838 102.503 83.8393C102.501 83.8406 102.5 83.8422 102.5 83.8439C102.499 83.8456 102.499 83.8474 102.499 83.8492C102.499 83.8511 102.499 83.8529 102.5 83.8546C102.5 83.8563 102.501 83.8578 102.503 83.8591C102.504 83.8604 102.505 83.8615 102.507 83.8622C102.509 83.8629 102.511 83.8633 102.513 83.8633C103.054 83.9723 103.578 84.1564 104.069 84.4102C104.086 84.4214 104.106 84.3849 104.083 84.3709Z" fill="#263238"/>
<path d="M116.273 78.1947C114.798 79.2172 113.444 80.4037 112.236 81.7316C110.992 83.1332 110.031 84.7629 109.406 86.5306C108.084 90.2132 107.371 94.0871 107.297 97.9994C107.253 100.167 107.462 102.332 107.92 104.45C107.924 104.465 107.934 104.477 107.947 104.485C107.96 104.493 107.975 104.496 107.99 104.493C108.005 104.49 108.019 104.482 108.028 104.47C108.037 104.458 108.042 104.443 108.04 104.428C107.471 100.687 107.493 96.8789 108.105 93.1443C108.702 89.498 109.645 85.5012 111.97 82.5253C113.238 80.9042 114.817 79.6308 116.379 78.3181C116.46 78.2508 116.357 78.1358 116.273 78.1947Z" fill="#23D0D4"/>
<path d="M107.811 95.3657C108.65 94.0076 109.637 92.7463 110.753 91.6045C112.497 89.8599 113.967 88.623 114.191 87.4674C114.416 86.3118 112.447 85.4648 112.447 85.4648C112.447 85.4648 114.859 85.8995 115.532 84.887C116.205 83.8745 116.511 78.0068 116.511 78.0068C116.511 78.0068 112.119 81.1426 110.06 85.5349C108.001 89.9272 107.811 95.3657 107.811 95.3657Z" fill="#23D0D4"/>
<path d="M114.932 83.5099C114.642 83.4688 114.349 83.4585 114.057 83.479C114.023 83.479 114.026 83.5407 114.057 83.5407C114.337 83.5407 114.635 83.5407 114.924 83.5407C114.927 83.5405 114.931 83.5392 114.933 83.537C114.936 83.5348 114.938 83.5318 114.939 83.5283C114.94 83.5249 114.94 83.5213 114.938 83.518C114.937 83.5147 114.935 83.5118 114.932 83.5099Z" fill="#263238"/>
<path d="M111.771 89.2007C111.306 89.2133 110.847 89.3082 110.416 89.4812C110.416 89.4812 110.416 89.5036 110.416 89.5008C110.862 89.3942 111.314 89.3521 111.765 89.2764C111.807 89.2624 111.807 89.2007 111.771 89.2007Z" fill="#263238"/>
<path d="M110.823 87.2345C110.63 87.2326 110.438 87.2505 110.248 87.2878C110.244 87.2878 110.24 87.2896 110.236 87.2927C110.233 87.2959 110.231 87.3002 110.231 87.3046C110.231 87.3091 110.233 87.3134 110.236 87.3165C110.24 87.3197 110.244 87.3215 110.248 87.3215C110.44 87.3319 110.633 87.3225 110.823 87.2934C110.83 87.2914 110.835 87.2875 110.839 87.2822C110.843 87.2769 110.845 87.2705 110.845 87.264C110.845 87.2574 110.843 87.251 110.839 87.2457C110.835 87.2404 110.83 87.2365 110.823 87.2345Z" fill="#263238"/>
<path d="M94.9397 84.4214C96.3685 84.9048 97.7376 85.5494 99.0206 86.3426C100.353 87.1928 101.508 88.294 102.42 89.585C104.345 92.261 105.818 95.2342 106.781 98.3864C107.317 100.132 107.649 101.933 107.769 103.755C107.766 103.766 107.759 103.777 107.75 103.784C107.741 103.792 107.729 103.796 107.717 103.796C107.705 103.796 107.693 103.792 107.684 103.784C107.674 103.777 107.668 103.766 107.665 103.755C107.261 100.596 106.364 97.52 105.006 94.6392C103.677 91.8148 101.994 88.808 99.4245 86.9372C98.0221 85.9191 96.4514 85.2544 94.8808 84.5476C94.7994 84.5083 94.8583 84.3933 94.9397 84.4214Z" fill="#23D0D4"/>
<path d="M105.755 96.3614C104.762 95.4563 103.673 94.6634 102.507 93.997C100.692 92.9901 99.2169 92.3141 98.7653 91.4446C98.3138 90.5751 99.7162 89.4224 99.7162 89.4224C99.7162 89.4224 97.865 90.3283 97.0965 89.6636C96.328 88.9988 94.7124 84.3345 94.7124 84.3345C94.7124 84.3345 98.9897 85.8575 101.663 88.9399C104.336 92.0224 105.755 96.3614 105.755 96.3614Z" fill="#23D0D4"/>
<path d="M105.533 95.3966C103.393 91.3802 100.538 87.7479 96.625 85.3499C97.646 86.0077 98.6037 86.7589 99.4859 87.5937C98.6899 87.5505 97.8966 87.7179 97.186 88.0789C97.1719 88.0789 97.186 88.107 97.2 88.1014C97.9554 87.8186 98.7581 87.6834 99.5644 87.7031C99.5736 87.7057 99.5833 87.7057 99.5925 87.7031L100.005 88.1042C99.5904 88.1231 99.1785 88.1775 98.7735 88.2668C98.7735 88.2668 98.7735 88.2865 98.7735 88.2837C99.2005 88.2033 99.6348 88.1676 100.069 88.1771C100.786 88.9016 101.46 89.6667 102.089 90.4686C101.801 90.4285 101.507 90.4495 101.228 90.5303C101.223 90.5303 101.219 90.5321 101.216 90.5352C101.213 90.5384 101.211 90.5427 101.211 90.5471C101.211 90.5516 101.213 90.5559 101.216 90.559C101.219 90.5622 101.223 90.564 101.228 90.564C101.532 90.5285 101.839 90.5238 102.145 90.5499C102.263 90.6986 102.38 90.8472 102.495 90.9987C101.622 90.9449 100.745 91.0301 99.8982 91.2511C99.8982 91.2511 99.8982 91.2736 99.8982 91.2708C100.776 91.0996 101.673 91.0411 102.566 91.0969C102.675 91.2427 102.779 91.3773 102.885 91.5372C102.364 91.5245 101.844 91.5839 101.34 91.7139C101.32 91.7139 101.326 91.7504 101.34 91.7448C101.865 91.6324 102.403 91.5909 102.939 91.6214C103.401 92.2553 103.842 92.9032 104.265 93.5595C104.039 93.5177 103.806 93.5312 103.586 93.5987C103.586 93.5987 103.586 93.6212 103.586 93.6184C103.832 93.5996 104.079 93.6118 104.321 93.6548C104.703 94.2467 105.07 94.8469 105.424 95.4471C105.48 95.4892 105.561 95.4499 105.533 95.3966Z" fill="#263238"/>
<path d="M102.204 92.0644C101.784 92.0373 101.363 92.0887 100.961 92.2159C100.961 92.2159 100.961 92.2383 100.961 92.2355C101.371 92.1668 101.784 92.1247 102.198 92.1093C102.229 92.1093 102.235 92.0672 102.204 92.0644Z" fill="#263238"/>
<path d="M98.4732 87.1702C98.2856 87.1573 98.0971 87.1686 97.9123 87.2038C97.8898 87.2038 97.8983 87.2403 97.9123 87.2375C98.1002 87.2178 98.2853 87.2375 98.4732 87.2207C98.4799 87.2207 98.4864 87.218 98.4911 87.2133C98.4958 87.2085 98.4985 87.2021 98.4985 87.1954C98.4985 87.1887 98.4958 87.1823 98.4911 87.1776C98.4864 87.1728 98.4799 87.1702 98.4732 87.1702Z" fill="#263238"/>
<path d="M111.275 109.642H101.618L102.992 99.556L103.345 96.97H109.544L109.897 99.556L111.275 109.642Z" fill="#455A64"/>
<path d="M109.897 99.556H102.992L103.345 96.97H109.544L109.897 99.556Z" fill="#263238"/>
<path d="M110.43 96.0725H102.459V98.2631H110.43V96.0725Z" fill="#455A64"/>
</svg>
