<svg width="133" height="122" viewBox="0 0 133 122" fill="none" xmlns="http://www.w3.org/2000/svg">
<path d="M7.84366 55.9756L8.39785 65.9014C8.40754 66.0713 8.48329 66.2312 8.60968 66.3486C8.73606 66.466 8.90358 66.532 9.07812 66.5332L27.3985 66.6647C27.4889 66.6654 27.5785 66.6488 27.6622 66.6157C27.746 66.5826 27.8222 66.5337 27.8865 66.4718C27.9508 66.4099 28.0019 66.3362 28.0369 66.255C28.0719 66.1738 28.0901 66.0867 28.0905 65.9986L28.1492 58.2798C28.1499 58.1914 28.1328 58.1038 28.0986 58.022C28.0645 57.9402 28.0141 57.8658 27.9503 57.803C27.8865 57.7403 27.8106 57.6905 27.727 57.6565C27.6433 57.6226 27.5536 57.6051 27.463 57.6051H16.1946C16.1045 57.6052 16.0154 57.5878 15.9323 57.554C15.8492 57.5201 15.7739 57.4704 15.7108 57.4078L13.7667 55.5153C13.6395 55.3901 13.4666 55.3192 13.2858 55.318L8.53566 55.2837C8.44306 55.2829 8.35124 55.3004 8.26574 55.3351C8.18024 55.3697 8.10283 55.421 8.03817 55.4856C7.97352 55.5502 7.92295 55.627 7.88952 55.7112C7.85609 55.7954 7.84049 55.8853 7.84366 55.9756Z" fill="#EBEBEB"/>
<path d="M28.1636 56.4326L8.146 56.2896L8.05832 67.9503L28.0759 68.0934L28.1636 56.4326Z" fill="#F5F5F5"/>
<path d="M6.54481 57.325L7.98159 69.4978C7.99444 69.6022 8.04591 69.6984 8.12635 69.7684C8.20679 69.8384 8.31066 69.8774 8.41848 69.8781L27.9264 70.0182C28.0379 70.0199 28.1459 69.98 28.2282 69.9067C28.3105 69.8333 28.361 69.7321 28.3692 69.6236L29.4424 57.4708C29.4476 57.4116 29.4403 57.3519 29.4208 57.2955C29.4012 57.2392 29.37 57.1874 29.329 57.1433C29.2879 57.0993 29.238 57.064 29.1824 57.0397C29.1267 57.0154 29.0665 57.0025 29.0055 57.002L6.98464 56.8447C6.9223 56.8447 6.86066 56.8576 6.80377 56.8824C6.74687 56.9073 6.696 56.9436 6.65448 56.9889C6.61296 57.0342 6.58173 57.0876 6.56283 57.1455C6.54393 57.2035 6.53779 57.2646 6.54481 57.325Z" fill="#EBEBEB"/>
<path d="M91.0213 57.6909L91.4992 66.2387C91.5067 66.3853 91.5718 66.5235 91.681 66.6247C91.7902 66.7258 91.9351 66.7821 92.0857 66.7819L107.861 66.8962C108.016 66.8962 108.166 66.836 108.276 66.7288C108.386 66.6215 108.447 66.4761 108.447 66.3245L108.497 59.672C108.497 59.5204 108.435 59.3749 108.325 59.2677C108.215 59.1605 108.066 59.1003 107.911 59.1003H98.211C98.1331 59.1007 98.056 59.086 97.984 59.057C97.912 59.0281 97.8466 58.9854 97.7917 58.9316L96.1233 57.2792C96.0138 57.1718 95.8651 57.1112 95.7099 57.1105L91.6194 57.0819C91.5381 57.0802 91.4573 57.0949 91.3822 57.1252C91.307 57.1556 91.2392 57.2008 91.1829 57.2581C91.1267 57.3153 91.0833 57.3834 91.0554 57.4579C91.0276 57.5324 91.016 57.6117 91.0213 57.6909Z" fill="#EBEBEB"/>
<path d="M108.518 58.0846L91.2827 57.9614L91.2072 68.0042L108.442 68.1274L108.518 58.0846Z" fill="#F5F5F5"/>
<path d="M89.9039 58.8515L91.1384 69.332C91.1485 69.4222 91.1923 69.5056 91.2616 69.5663C91.3308 69.6269 91.4206 69.6606 91.5137 69.6607L108.312 69.7808C108.408 69.7811 108.5 69.7463 108.571 69.6833C108.642 69.6203 108.685 69.5336 108.693 69.4406L109.617 58.9773C109.622 58.9263 109.616 58.8749 109.599 58.8263C109.583 58.7777 109.556 58.7331 109.521 58.6951C109.485 58.6572 109.442 58.6269 109.394 58.6061C109.346 58.5853 109.294 58.5744 109.242 58.5742L90.2822 58.437C90.2284 58.4371 90.1753 58.4482 90.1263 58.4697C90.0773 58.4912 90.0335 58.5225 89.9978 58.5616C89.962 58.6008 89.9352 58.6468 89.919 58.6968C89.9029 58.7468 89.8977 58.7995 89.9039 58.8515Z" fill="#EBEBEB"/>
<path d="M122.519 1.67822H94.4844V46.9219H122.519V1.67822Z" fill="#E0E0E0"/>
<path d="M121.587 1.67822H93.5522V46.9219H121.587V1.67822Z" fill="#EBEBEB"/>
<path d="M120.394 2.5957H94.7456V46.004H120.394V2.5957Z" fill="white"/>
<path d="M115.397 8.23633H99.6274V40.3637H115.397V8.23633Z" fill="#EBEBEB"/>
<path d="M99.6419 28.9969C99.6067 25.9952 102.375 23.0649 105.421 22.6447C106.887 22.4474 108.421 22.7276 109.779 22.1844C112.203 21.2152 112.975 18.0763 115.414 17.1443L115.526 40.3636H99.6419V28.9969Z" fill="#E0E0E0"/>
<path d="M120.898 59.6434C120.898 59.6434 118.576 59.4805 118.79 64.5606C119.004 69.6407 119.534 72.3423 119.534 72.3423C119.534 72.3423 119.467 73.4687 118.573 73.2485C117.678 73.0284 115.995 71.9306 115.165 72.7511C114.336 73.5716 114.608 74.9038 115.752 76.439C116.895 77.9741 119.27 81.4247 119.487 81.7392C119.704 82.0537 119.781 82.6226 119.147 82.5654C118.514 82.5082 114.233 81.096 113.667 83.1172C113.101 85.1383 117.007 88.9034 117.426 89.3208C117.845 89.7382 117.866 90.0069 117.696 90.2613C117.526 90.5158 116.133 89.9068 114.899 89.5524C113.664 89.1979 112.172 89.0006 111.943 90.1927C111.714 91.3849 113.438 94.8726 119.88 98.5405L122.98 100.05L125.912 98.226C131.946 93.9378 133.298 90.3099 132.949 89.1464C132.6 87.9829 131.134 88.3259 129.941 88.7976C128.747 89.2693 127.428 90.0098 127.231 89.7725C127.035 89.5352 127.032 89.2722 127.404 88.8119C127.777 88.3517 131.278 84.2378 130.507 82.2738C129.736 80.3098 125.625 82.1423 124.997 82.2595C124.37 82.3767 124.411 81.7935 124.575 81.4676C124.739 81.1417 126.768 77.4653 127.747 75.83C128.727 74.1948 128.9 72.8654 127.953 72.1136C127.006 71.3617 125.481 72.6339 124.613 72.9398C123.745 73.2457 123.563 72.1336 123.563 72.1336C123.563 72.1336 123.815 69.392 123.508 64.3176C123.2 59.2432 120.848 59.652 120.848 59.652" fill="#23D0D4"/>
<path d="M121.083 64.1919C121.083 64.1919 121.083 64.2291 121.083 64.2977C121.083 64.3663 121.083 64.4778 121.109 64.6093C121.127 64.8952 121.156 65.2925 121.191 65.81C121.262 66.8506 121.352 68.3601 121.458 70.224C121.672 73.9405 121.921 79.0863 122.173 84.7897C122.426 90.493 122.666 95.6332 122.857 99.3696C122.953 101.231 123.033 102.737 123.085 103.784C123.112 104.301 123.132 104.704 123.147 104.984C123.147 105.119 123.147 105.222 123.162 105.296V105.405C123.162 105.405 123.162 105.367 123.147 105.296C123.132 105.224 123.147 105.119 123.123 104.984C123.103 104.698 123.077 104.304 123.041 103.787C122.968 102.746 122.877 101.236 122.772 99.3725C122.56 95.656 122.311 90.5102 122.056 84.7925C121.801 79.0749 121.566 73.9519 121.376 70.2126C121.279 68.3515 121.2 66.8449 121.144 65.7985C121.118 65.2811 121.097 64.878 121.083 64.5979C121.083 64.4635 121.083 64.3606 121.083 64.2862C121.081 64.2548 121.081 64.2233 121.083 64.1919Z" fill="#E0E0E0"/>
<path d="M117.455 74.375C117.525 74.4201 117.59 74.4729 117.649 74.5322C117.766 74.638 117.942 74.7952 118.138 74.9925C118.549 75.387 119.097 75.9474 119.692 76.5763L121.208 78.1944L121.672 78.6804C121.732 78.7371 121.787 78.8004 121.833 78.8691C121.762 78.8254 121.697 78.7735 121.639 78.7147C121.519 78.6089 121.346 78.4488 121.15 78.2516C120.742 77.8513 120.2 77.2853 119.607 76.6563L118.08 75.0497L117.616 74.5637C117.555 74.5077 117.5 74.4443 117.455 74.375Z" fill="#E0E0E0"/>
<path d="M122.141 78.769C122.118 78.7461 123.249 77.5883 124.671 76.1961C126.094 74.8038 127.264 73.6689 127.287 73.6917C127.31 73.7146 126.176 74.8724 124.757 76.2647C123.337 77.6569 122.164 78.7919 122.141 78.769Z" fill="#E0E0E0"/>
<path d="M122.126 87.5255C122.193 87.472 122.266 87.4268 122.343 87.3911L122.95 87.0595C123.461 86.7736 124.164 86.3905 124.927 85.9331C125.689 85.4757 126.366 85.044 126.856 84.7239L127.443 84.3494C127.511 84.2985 127.584 84.2553 127.662 84.2207C127.605 84.283 127.54 84.3378 127.469 84.3837C127.34 84.4837 127.149 84.6238 126.912 84.7925C126.437 85.1269 125.765 85.5758 125 86.0303C124.235 86.4849 123.519 86.868 122.997 87.131C122.736 87.2625 122.522 87.3654 122.373 87.4312C122.294 87.4704 122.212 87.502 122.126 87.5255Z" fill="#E0E0E0"/>
<path d="M116.992 84.4609C117.068 84.4827 117.14 84.5154 117.206 84.5581C117.341 84.6296 117.534 84.7325 117.769 84.864C118.241 85.1242 118.889 85.493 119.598 85.9046C120.308 86.3163 120.953 86.6965 121.413 86.9767L121.956 87.3112C122.024 87.3502 122.088 87.3962 122.147 87.4484C122.071 87.426 121.999 87.3933 121.932 87.3512C121.798 87.2826 121.607 87.1768 121.369 87.0453C120.897 86.7852 120.249 86.4164 119.54 86.0047C118.83 85.593 118.188 85.2128 117.725 84.9326L117.182 84.5982C117.114 84.5591 117.05 84.5131 116.992 84.4609Z" fill="#E0E0E0"/>
<path d="M115.975 92.1882C116.069 92.2236 116.16 92.2666 116.247 92.3169L116.969 92.7057C117.576 93.0373 118.408 93.5033 119.314 94.0236C120.22 94.5439 121.059 95.0213 121.66 95.3701L122.361 95.7903C122.45 95.8371 122.533 95.8927 122.61 95.9562C122.514 95.924 122.423 95.8808 122.337 95.8275L121.634 95.4416C121.03 95.1099 120.194 94.644 119.288 94.1237C118.382 93.6034 117.529 93.1202 116.942 92.7771L116.239 92.3569C116.145 92.3098 116.056 92.2533 115.975 92.1882Z" fill="#E0E0E0"/>
<path d="M122.484 95.8246C122.567 95.7558 122.657 95.6964 122.754 95.6474L123.507 95.2014C124.144 94.824 125.02 94.298 125.97 93.6919C126.92 93.0859 127.771 92.5227 128.381 92.1053L129.105 91.6164C129.19 91.5512 129.281 91.4947 129.377 91.4478C129.302 91.5235 129.22 91.5924 129.131 91.6536C128.97 91.7794 128.729 91.9566 128.43 92.1739C127.829 92.6056 126.988 93.1859 126.035 93.7891C125.082 94.3923 124.196 94.9098 123.548 95.27C123.226 95.4501 122.962 95.593 122.777 95.6874C122.683 95.741 122.585 95.7869 122.484 95.8246Z" fill="#E0E0E0"/>
<path d="M127.144 101.039H118.57L121.367 121.691H124.343L127.144 101.039Z" fill="#A0A0A0"/>
<path d="M119.013 103.578C119.023 103.604 119.039 103.629 119.06 103.649C119.114 103.714 119.185 103.764 119.265 103.795C119.413 103.847 119.571 103.865 119.728 103.848C119.884 103.831 120.035 103.78 120.168 103.698C120.514 103.512 120.816 103.146 121.279 102.983C121.794 102.822 122.349 102.833 122.857 103.015C123.373 103.187 123.865 103.42 124.323 103.709C124.706 103.943 125.105 104.151 125.516 104.333C125.797 104.454 126.092 104.538 126.396 104.581C126.479 104.592 126.562 104.598 126.645 104.598C126.701 104.598 126.733 104.598 126.733 104.598C126.327 104.538 125.933 104.421 125.56 104.252C125.157 104.06 124.765 103.845 124.387 103.609C123.924 103.309 123.422 103.067 122.895 102.892C122.359 102.703 121.773 102.697 121.232 102.875C121.003 102.966 120.791 103.093 120.605 103.252C120.45 103.386 120.286 103.51 120.115 103.624C119.995 103.705 119.858 103.759 119.713 103.784C119.569 103.809 119.421 103.803 119.28 103.766C119.18 103.72 119.089 103.656 119.013 103.578Z" fill="#F5F5F5"/>
<path d="M119.326 107.38C119.326 107.38 119.394 107.294 119.529 107.16C119.722 106.972 119.955 106.828 120.212 106.737C120.593 106.6 120.999 106.54 121.405 106.56C121.906 106.597 122.405 106.664 122.898 106.76C123.401 106.854 123.916 106.874 124.425 106.82C124.841 106.769 125.247 106.656 125.628 106.485C125.883 106.372 126.124 106.232 126.349 106.068C126.436 106.013 126.513 105.944 126.578 105.865C126.263 106.069 125.931 106.247 125.586 106.397C125.212 106.55 124.817 106.651 124.414 106.697C123.915 106.741 123.413 106.717 122.921 106.625C122.423 106.528 121.918 106.464 121.411 106.434C120.99 106.421 120.571 106.493 120.179 106.645C119.914 106.749 119.678 106.913 119.49 107.123C119.442 107.181 119.399 107.243 119.361 107.309C119.332 107.354 119.323 107.377 119.326 107.38Z" fill="#F5F5F5"/>
<path d="M126.17 109.416C126.101 109.36 126.021 109.319 125.935 109.296C125.707 109.212 125.467 109.162 125.223 109.147C124.864 109.124 124.504 109.144 124.15 109.207C123.751 109.27 123.323 109.376 122.871 109.47C122.453 109.566 122.025 109.613 121.596 109.61C121.247 109.601 120.903 109.528 120.581 109.396C120.288 109.265 120.026 109.075 119.813 108.838C119.845 108.92 119.894 108.995 119.957 109.058C120.121 109.237 120.32 109.382 120.543 109.484C120.872 109.636 121.229 109.722 121.593 109.736C122.034 109.746 122.474 109.702 122.904 109.604C123.358 109.51 123.783 109.398 124.173 109.318C124.518 109.255 124.869 109.225 125.22 109.23C125.544 109.251 125.863 109.314 126.17 109.416Z" fill="#F5F5F5"/>
<path d="M120.083 112.274C120.346 112.166 120.636 112.138 120.916 112.194C121.221 112.265 121.516 112.372 121.795 112.512C122.151 112.677 122.535 112.78 122.927 112.815C123.644 112.876 124.363 112.714 124.98 112.352C125.164 112.243 125.335 112.114 125.49 111.969C125.549 111.917 125.601 111.857 125.642 111.791C125.41 111.965 125.168 112.126 124.918 112.274C124.311 112.598 123.62 112.74 122.93 112.683C122.118 112.637 121.496 112.166 120.933 112.111C120.716 112.074 120.493 112.093 120.285 112.166C120.21 112.185 120.14 112.222 120.083 112.274Z" fill="#F5F5F5"/>
<path d="M120.561 116.245C120.807 116.251 121.051 116.205 121.276 116.108C121.707 115.965 122.241 115.645 122.862 115.402C123.153 115.288 123.461 115.226 123.774 115.216C124.028 115.216 124.278 115.272 124.507 115.379C124.715 115.49 124.895 115.642 125.038 115.825C125.027 115.761 124.998 115.701 124.956 115.651C124.852 115.504 124.715 115.382 124.554 115.296C124.316 115.166 124.05 115.096 123.777 115.09C123.446 115.091 123.119 115.154 122.812 115.276C122.167 115.528 121.64 115.848 121.241 116.017C120.842 116.185 120.558 116.222 120.561 116.245Z" fill="#F5F5F5"/>
<path d="M120.983 118.089C121.154 118.172 121.337 118.229 121.525 118.261C122.42 118.47 123.339 118.559 124.258 118.524C124.449 118.528 124.64 118.505 124.824 118.458C124.824 118.415 123.944 118.458 122.895 118.349C121.845 118.241 120.992 118.049 120.983 118.089Z" fill="#F5F5F5"/>
<path d="M31.4742 6.62964H3.45117V46.23H31.4742V6.62964Z" fill="#E0E0E0"/>
<path d="M30.0694 6.62964H2.04639V46.23H30.0694V6.62964Z" fill="#F5F5F5"/>
<path d="M26.5859 10.918H5.52686V41.939H26.5859V10.918Z" fill="white"/>
<path d="M26.5865 41.9474C26.5865 41.9474 26.5865 41.8931 26.5865 41.7959C26.5865 41.6987 26.5865 41.5472 26.5865 41.3557C26.5865 40.964 26.5865 40.3951 26.5865 39.6404C26.5865 38.1538 26.5865 35.9897 26.5689 33.2509C26.5689 27.782 26.5484 20.0346 26.5337 10.9121L26.6041 10.9807L5.51861 10.9922L5.59484 10.9178C5.59484 22.6218 5.59484 33.411 5.59484 41.9417L5.53327 41.8817L20.8628 41.9131L25.0969 41.9274H26.2082H26.5923H26.22H25.1204H20.9009L5.51861 41.9989H5.45703V41.9474C5.45703 33.4167 5.45703 22.6276 5.45703 10.9236V10.8435H5.51861H26.5748H26.6451V10.9121C26.6451 20.0603 26.6187 27.8134 26.6099 33.2967C26.6099 36.0268 26.6099 38.1881 26.5923 39.6718C26.5923 40.4065 26.5923 40.9726 26.5923 41.3585C26.5923 41.5472 26.5923 41.6901 26.5923 41.7902C26.5923 41.8903 26.5865 41.9474 26.5865 41.9474Z" fill="#E0E0E0"/>
<path d="M30.1493 6.62964C30.0061 6.87971 29.8393 7.11612 29.6508 7.33577C29.3253 7.76173 28.862 8.33921 28.3372 8.96243C27.8123 9.58566 27.3168 10.1403 26.9502 10.5319C26.7652 10.7552 26.5591 10.961 26.3345 11.1466C26.4918 10.9042 26.6704 10.6756 26.8681 10.4633L28.2169 8.86809C28.7301 8.26488 29.1904 7.72457 29.5658 7.27287C29.7412 7.04268 29.9364 6.82749 30.1493 6.62964Z" fill="#E0E0E0"/>
<path d="M26.6948 41.8418C27.7411 43.4645 28.9727 44.9664 30.3659 46.3187L26.6948 41.8418Z" fill="white"/>
<path d="M30.3659 46.3186C30.1333 46.1499 29.9191 45.9583 29.7267 45.7468C28.7506 44.7751 27.8773 43.7101 27.12 42.5678C26.9518 42.3394 26.8093 42.094 26.6948 41.8359C26.8862 42.0506 27.0606 42.279 27.2168 42.5192C27.51 42.9423 27.9586 43.5198 28.4659 44.1373C28.9731 44.7548 29.457 45.2808 29.8118 45.681C30.0126 45.8797 30.1978 46.0928 30.3659 46.3186Z" fill="#E0E0E0"/>
<path d="M2.04102 46.1984L5.71213 41.7815L2.04102 46.1984Z" fill="white"/>
<path d="M5.71212 41.7815C5.16714 42.5633 4.57987 43.3162 3.9528 44.0371C3.36082 44.7903 2.72752 45.5118 2.05566 46.1984C2.60299 45.4193 3.19119 44.6684 3.81792 43.9485C4.41124 43.1953 5.04346 42.4721 5.71212 41.7815Z" fill="#E0E0E0"/>
<path d="M2.04639 6.62964C2.67808 7.28928 3.27225 7.98215 3.82623 8.70514C4.42247 9.39687 4.97757 10.1213 5.48879 10.875C4.85634 10.211 4.26215 9.51333 3.70895 8.78519C3.11465 8.09693 2.55963 7.37732 2.04639 6.62964Z" fill="#E0E0E0"/>
<path d="M20.027 17.2158H12.9751V36.7358H20.027V17.2158Z" fill="#E0E0E0"/>
<path d="M66.5936 0.00561523H44.5698V22.3901H66.5936V0.00561523Z" fill="#E0E0E0"/>
<path d="M65.1009 0.00561523H43.0771V22.3901H65.1009V0.00561523Z" fill="#FAFAFA"/>
<path d="M65.1097 22.3988H43.0713V0H65.1097V22.3988ZM43.0859 22.3845H65.0951V0.0142939H43.0859V22.3845Z" fill="#E0E0E0"/>
<path d="M62.1422 3.01611H46.0386V19.3828H62.1422V3.01611Z" fill="white"/>
<path d="M46.0387 19.4915C45.9243 19.655 45.7915 19.8055 45.6428 19.9403C45.3848 20.2062 45.0241 20.5635 44.6165 20.9523C44.209 21.3411 43.8395 21.6899 43.5668 21.9357C43.4276 22.0794 43.271 22.2061 43.1006 22.3131C43.2135 22.1485 43.3464 21.9978 43.4964 21.8643C43.7515 21.6013 44.1151 21.2411 44.5227 20.8523C44.9303 20.4635 45.2997 20.1147 45.5754 19.866C45.7142 19.7239 45.8697 19.5982 46.0387 19.4915Z" fill="#E0E0E0"/>
<path d="M62.1421 19.4514C62.3105 19.5632 62.4658 19.6926 62.6054 19.8374C62.8751 20.0889 63.2417 20.4406 63.6434 20.8351C64.0451 21.2296 64.397 21.5955 64.6491 21.8614C64.7965 21.9971 64.9264 22.1498 65.0362 22.316C64.8673 22.2059 64.7128 22.0763 64.5758 21.93C64.3061 21.6784 63.9366 21.3268 63.5378 20.9294C63.139 20.5321 62.7813 20.1718 62.5291 19.9031C62.3821 19.7682 62.2521 19.6165 62.1421 19.4514Z" fill="#E0E0E0"/>
<path d="M62.1104 3.06753C62.2253 2.90359 62.3591 2.753 62.5091 2.6187C62.7642 2.35283 63.1249 1.99548 63.5325 1.60668C63.94 1.21788 64.3095 0.869104 64.5822 0.623246C64.7191 0.476931 64.8737 0.347338 65.0426 0.237305C64.9296 0.401914 64.7967 0.552617 64.6467 0.686139C64.3916 0.952009 64.028 1.30936 63.6204 1.70102C63.2129 2.09268 62.8434 2.43859 62.5678 2.68445C62.4313 2.82921 62.2777 2.95779 62.1104 3.06753Z" fill="#E0E0E0"/>
<path d="M45.9829 3.09891C45.8128 2.98938 45.6572 2.85975 45.5197 2.71297C45.2499 2.46139 44.8834 2.10976 44.4846 1.71524C44.0858 1.32073 43.7281 0.957656 43.4759 0.688927C43.3286 0.553186 43.1986 0.400559 43.0889 0.234375C43.2577 0.344476 43.4123 0.474061 43.5492 0.620315C43.819 0.871891 44.1884 1.22353 44.5872 1.6209C44.986 2.01828 45.3437 2.38135 45.5988 2.64722C45.7446 2.78259 45.8735 2.93419 45.9829 3.09891Z" fill="#E0E0E0"/>
<path d="M62.11 19.3829C62.11 19.3829 62.11 19.3543 62.11 19.3028C62.11 19.2514 62.11 19.1713 62.11 19.0741C62.11 18.8683 62.11 18.5738 62.11 18.1907C62.11 17.416 62.11 16.2868 62.11 14.8545C62.11 11.9957 62.0895 7.90471 62.0778 3.01614L62.11 3.0676H46.0533L46.1237 2.99898C46.1237 9.0025 46.1237 14.6258 46.1237 19.3657L46.0621 19.3057L57.6912 19.3371L60.9371 19.3629H61.7992H62.0221H61.8168H60.9635H57.7117L46.0445 19.3943H45.9829V19.3343C45.9829 14.5943 45.9829 8.97391 45.9829 2.96754V2.89893H46.0562H62.113H62.1745V2.95896C62.1745 7.86469 62.1511 11.9614 62.1423 14.8373C62.1423 16.2668 62.1423 17.3874 62.1276 18.1593C62.1276 18.5367 62.1276 18.8283 62.1276 19.0312C62.1276 19.1256 62.1276 19.197 62.1276 19.2514C62.1261 19.2956 62.1203 19.3397 62.11 19.3829Z" fill="#E0E0E0"/>
<path d="M56.779 8.57935H51.4043V13.8196H56.779V8.57935Z" fill="#EBEBEB"/>
<path d="M33.0636 90.5187L33.6149 100.39C33.6238 100.56 33.699 100.72 33.8249 100.837C33.9508 100.955 34.118 101.021 34.2922 101.022L52.51 101.151C52.5997 101.151 52.6887 101.135 52.7719 101.102C52.8551 101.069 52.9308 101.021 52.9948 100.96C53.0588 100.898 53.1098 100.825 53.1448 100.745C53.1799 100.664 53.1983 100.578 53.1991 100.49L53.2577 92.8057C53.2581 92.7179 53.2407 92.6308 53.2066 92.5495C53.1725 92.4682 53.1223 92.3942 53.0588 92.3319C52.9954 92.2695 52.9199 92.2199 52.8368 92.1859C52.7537 92.152 52.6646 92.1343 52.5745 92.1339H41.3676C41.2781 92.1336 41.1895 92.1161 41.1069 92.0822C41.0244 92.0484 40.9495 91.9989 40.8867 91.9366L38.9515 90.0527C38.824 89.93 38.6526 89.8603 38.4735 89.8583L33.7498 89.824C33.6573 89.8235 33.5656 89.8414 33.4804 89.8764C33.3952 89.9115 33.3182 89.9631 33.2541 90.028C33.1899 90.093 33.14 90.17 33.1072 90.2543C33.0745 90.3386 33.0596 90.4286 33.0636 90.5187Z" fill="#EBEBEB"/>
<path d="M53.27 90.9741L33.3638 90.8318L33.2766 102.43L53.1828 102.572L53.27 90.9741Z" fill="#F5F5F5"/>
<path d="M31.7734 91.8595L33.2013 103.967C33.2136 104.07 33.2646 104.166 33.3446 104.236C33.4246 104.305 33.5281 104.344 33.6353 104.344L53.0348 104.484C53.1454 104.484 53.2522 104.445 53.3342 104.372C53.4161 104.3 53.4673 104.2 53.4775 104.092L54.5448 92.0053C54.5497 91.9463 54.542 91.8869 54.5223 91.8309C54.5026 91.7749 54.4713 91.7234 54.4303 91.6797C54.3893 91.636 54.3395 91.601 54.2841 91.5768C54.2286 91.5527 54.1687 91.5399 54.1079 91.5393L32.2015 91.3821C32.1402 91.3833 32.08 91.3969 32.0245 91.4222C31.969 91.4474 31.9195 91.4836 31.8792 91.5286C31.8389 91.5735 31.8087 91.6262 31.7905 91.6831C31.7722 91.7401 31.7664 91.8002 31.7734 91.8595Z" fill="#EBEBEB"/>
<path d="M64.7165 96.0791L65.2677 105.985C65.2767 106.155 65.3518 106.314 65.4777 106.432C65.6036 106.549 65.7708 106.615 65.9451 106.617L84.2039 106.748C84.294 106.749 84.3834 106.732 84.4669 106.699C84.5505 106.667 84.6265 106.618 84.6908 106.556C84.755 106.495 84.8062 106.421 84.8414 106.341C84.8766 106.26 84.8951 106.173 84.8959 106.085L84.9545 98.3833C84.9549 98.2952 84.9375 98.2079 84.9032 98.1264C84.8688 98.0449 84.8184 97.9709 84.7546 97.9084C84.6909 97.846 84.6151 97.7965 84.5317 97.7627C84.4482 97.7289 84.3587 97.7115 84.2684 97.7115H73.0381C72.9482 97.7118 72.8593 97.6948 72.7762 97.6615C72.6932 97.6281 72.6177 97.579 72.5542 97.5171L70.619 95.6274C70.4908 95.5041 70.3182 95.4343 70.1381 95.433L65.4055 95.3987C65.3141 95.3979 65.2234 95.4151 65.1388 95.4491C65.0543 95.4831 64.9776 95.5333 64.9134 95.5968C64.8491 95.6602 64.7986 95.7356 64.7647 95.8185C64.7309 95.9013 64.7145 95.99 64.7165 96.0791Z" fill="#EBEBEB"/>
<path d="M84.9653 96.5378L65.0151 96.3953L64.9277 108.019L84.8779 108.161L84.9653 96.5378Z" fill="#F5F5F5"/>
<path d="M63.4205 97.4226L64.8543 109.555C64.8665 109.66 64.9174 109.756 64.9973 109.826C65.0773 109.896 65.1808 109.935 65.2883 109.936L84.7317 110.076C84.8426 110.075 84.9495 110.035 85.0314 109.962C85.1132 109.889 85.1643 109.789 85.1745 109.681L86.2447 97.5684C86.2496 97.5093 86.2419 97.45 86.2222 97.394C86.2025 97.338 86.1712 97.2865 86.1302 97.2428C86.0892 97.1991 86.0394 97.1641 85.984 97.1399C85.9285 97.1157 85.8686 97.103 85.8078 97.1024L63.8691 96.9451C63.8063 96.944 63.744 96.9559 63.6862 96.98C63.6285 97.0041 63.5767 97.04 63.5343 97.0851C63.4918 97.1303 63.4597 97.1837 63.4401 97.2419C63.4205 97.3001 63.4138 97.3617 63.4205 97.4226Z" fill="#EBEBEB"/>
<path d="M19.7568 79.355C16.7484 74.8724 17.1882 68.4686 20.7655 64.4148C21.8798 63.157 23.4368 62.062 25.1374 62.205C26.8381 62.3479 28.2778 63.8031 28.8086 65.4269C29.3393 67.0507 29.1516 68.806 28.8408 70.4813C28.4068 72.8255 27.6679 75.224 26.0083 76.9679C24.3487 78.7118 21.9032 80.4986 19.7451 79.355" fill="#9CFED5"/>
<path d="M20.6656 100.933C20.1255 99.6297 20.0198 98.1936 20.3635 96.8282C20.7071 95.4629 21.4827 94.2376 22.5803 93.3259C23.2723 92.7742 24.1754 92.3482 25.0375 92.5712C25.8995 92.7942 26.5036 93.6747 26.6297 94.5552C26.7557 95.4357 26.4918 96.3277 26.1781 97.1624C25.7353 98.3346 25.1372 99.5067 24.1256 100.256C23.1139 101.005 21.6742 101.711 20.6773 100.933" fill="#9CFED5"/>
<path d="M14.1681 99.3924C14.995 95.4072 12.8486 91.0332 9.15695 89.1636C8.01046 88.5918 6.60301 88.2373 5.44772 88.8034C4.29243 89.3694 3.6884 90.7845 3.79102 92.071C3.89365 93.3575 4.51821 94.5496 5.22487 95.6359C6.20423 97.1654 7.40643 98.6548 9.08072 99.4239C10.755 100.193 12.9952 100.785 14.174 99.3924" fill="#9CFED5"/>
<path d="M14.6905 88.646C16.1302 84.1176 13.6906 78.6401 9.62075 76.03C8.3599 75.2239 6.76185 74.6635 5.35146 75.1724C3.94107 75.6813 3.07607 77.2793 3.03209 78.7859C2.98811 80.2925 3.58041 81.742 4.26361 83.0942C5.21951 84.9867 6.43931 86.8564 8.29246 87.9542C10.1456 89.052 13.1511 90.1269 14.6905 88.6431" fill="#9CFED5"/>
<path d="M16.8272 110.779C16.8028 110.709 16.7871 110.636 16.7803 110.562C16.7539 110.396 16.7216 110.187 16.6835 109.93C16.663 109.79 16.6425 109.644 16.619 109.473C16.5955 109.301 16.5486 109.127 16.5105 108.935C16.4372 108.549 16.358 108.106 16.2173 107.629C16.1557 107.386 16.0941 107.134 16.0296 106.874C15.9651 106.614 15.8713 106.345 15.7863 106.065C15.6308 105.493 15.4021 104.921 15.1998 104.301C14.6854 102.975 14.0871 101.681 13.4082 100.427C12.7116 99.185 11.937 97.9859 11.0889 96.8366C10.6784 96.3221 10.3089 95.8132 9.91598 95.3758L9.3618 94.7326L8.81934 94.1608C8.48214 93.7891 8.14787 93.4832 7.85758 93.2088L7.4588 92.8229L7.104 92.5198L6.61726 92.091C6.50583 91.9909 6.45012 91.9366 6.45599 91.9309C6.52159 91.9691 6.58342 92.0131 6.64072 92.0624L7.15385 92.4627L7.52038 92.7485L7.93382 93.1202C8.22704 93.3889 8.57304 93.6919 8.91904 94.0579L9.47322 94.6296L10.0421 95.27C10.4438 95.7045 10.822 96.2106 11.2384 96.728C12.1003 97.8814 12.8839 99.0885 13.5842 100.342C14.2679 101.603 14.8654 102.908 15.3728 104.247C15.5839 104.873 15.8097 105.459 15.9593 106.025C16.0414 106.311 16.1176 106.579 16.1938 106.842C16.2701 107.106 16.3141 107.36 16.3698 107.603C16.4929 108.086 16.5604 108.532 16.6249 108.921C16.6571 109.115 16.6894 109.295 16.7158 109.464C16.7422 109.633 16.7509 109.784 16.7656 109.924C16.7891 110.184 16.8096 110.396 16.8243 110.562C16.8326 110.634 16.8336 110.707 16.8272 110.779Z" fill="#263238"/>
<path d="M16.7223 111.594C16.7185 111.563 16.7185 111.533 16.7223 111.502C16.7223 111.434 16.7223 111.348 16.7399 111.242C16.7634 110.996 16.7956 110.67 16.8367 110.236C16.8601 110.016 16.8836 109.773 16.91 109.51C16.9364 109.247 16.9393 108.952 16.954 108.652C16.9774 108.029 17.039 107.32 17.0155 106.537C17.0155 106.145 17.0155 105.736 17.0155 105.307C17.0155 104.879 16.9716 104.435 16.9481 103.975C16.9158 103.055 16.7898 102.08 16.6754 101.048C16.3648 98.8251 15.8885 96.6275 15.2504 94.4724C14.5795 92.3198 13.7484 90.2177 12.7638 88.183C12.283 87.2596 11.8431 86.3705 11.3564 85.5815C11.1159 85.1841 10.9019 84.7896 10.6673 84.438C10.4327 84.0863 10.2099 83.7204 9.97825 83.4002C9.55894 82.7284 9.09859 82.1681 8.74672 81.6592C8.55906 81.4076 8.389 81.1703 8.22479 80.9559C8.06059 80.7415 7.89639 80.5614 7.75564 80.3842L7.11349 79.5923C7.04898 79.5065 6.99327 79.4379 6.94928 79.3836C6.9053 79.3293 6.8965 79.3093 6.89944 79.3064C6.90237 79.3035 6.92583 79.3264 6.96688 79.3693L7.14281 79.5665L7.81428 80.3384L8.2981 80.9102C8.46817 81.1189 8.64117 81.3562 8.83469 81.6049C9.21001 82.108 9.66744 82.6655 10.0955 83.3202L10.7963 84.3465C11.0368 84.7067 11.2538 85.1012 11.4971 85.49C11.9927 86.279 12.4384 87.1653 12.9251 88.0915C13.9249 90.1229 14.765 92.2254 15.438 94.3809C16.0812 96.5489 16.5546 98.7613 16.8543 100.999C16.9628 102.034 17.0859 103.015 17.1123 103.938C17.1299 104.401 17.168 104.847 17.168 105.276C17.168 105.705 17.168 106.116 17.168 106.511C17.168 107.297 17.1094 108.006 17.0771 108.629C17.0537 108.941 17.0419 109.23 17.0155 109.487C16.9891 109.744 16.951 109.996 16.9246 110.213L16.7927 111.217C16.7927 111.322 16.7634 111.408 16.7546 111.477C16.7496 111.517 16.7388 111.556 16.7223 111.594Z" fill="#263238"/>
<path d="M24.5482 67.6195C24.538 67.6481 24.5252 67.6759 24.5101 67.7024L24.3782 67.9368L23.865 68.8202C23.7565 69.0146 23.6216 69.2261 23.4956 69.4663L23.0939 70.2553C22.9472 70.5412 22.8006 70.8271 22.6306 71.1587C22.4605 71.4903 22.3373 71.8334 22.1585 72.1965C21.9796 72.5595 21.8154 72.9397 21.6483 73.34C21.4811 73.7402 21.3228 74.1662 21.1498 74.6007C21.0648 74.8208 20.9768 75.041 20.8888 75.2668L20.6455 75.9672C20.4842 76.4389 20.3141 76.9249 20.1441 77.4224C19.5048 79.4235 18.9008 81.6677 18.3847 84.0434C17.8687 86.4191 17.5403 88.7233 17.2969 90.8131C17.0535 92.9029 16.9157 94.7954 16.8717 96.3849C16.8307 97.1797 16.8219 97.9001 16.8189 98.5319C16.816 99.1637 16.8043 99.7068 16.8189 100.153C16.8336 100.599 16.8189 100.928 16.8189 101.179C16.8189 101.285 16.8189 101.374 16.8189 101.445C16.8233 101.475 16.8233 101.506 16.8189 101.536C16.8147 101.506 16.8147 101.475 16.8189 101.445C16.8189 101.374 16.8189 101.288 16.8013 101.179C16.8013 100.93 16.772 100.587 16.7515 100.156C16.731 99.724 16.7134 99.1637 16.7134 98.5319C16.7134 97.9001 16.7134 97.1768 16.7368 96.3792C16.7632 94.7868 16.9128 92.8914 17.121 90.7931C17.3291 88.6947 17.7074 86.4019 18.2059 84.0177C18.7043 81.6334 19.326 79.3921 19.9652 77.3795C20.1382 76.8821 20.3112 76.3961 20.4754 75.9215C20.5604 75.6871 20.6425 75.4526 20.7246 75.2239L20.9915 74.5578L21.5046 73.2971C21.6747 72.894 21.8594 72.5166 22.0236 72.1536C22.1878 71.7905 22.3491 71.4417 22.5103 71.1187L22.9883 70.2182L23.4076 69.4348C23.5395 69.1947 23.6774 68.986 23.7917 68.7945L24.34 67.9168C24.3987 67.8253 24.4456 67.751 24.4866 67.691C24.5277 67.6309 24.5453 67.6166 24.5482 67.6195Z" fill="#263238"/>
<path d="M23.5247 95.1213C23.4342 95.3127 23.3273 95.4964 23.2051 95.6702C22.9852 96.0104 22.6832 96.5279 22.3255 97.1511C21.9677 97.7743 21.5807 98.5576 21.1848 99.4382C20.789 100.319 20.4166 101.296 20.0794 102.346C19.7422 103.395 19.493 104.421 19.3112 105.356C19.1294 106.291 19.0179 107.146 18.9329 107.863C18.8479 108.581 18.8156 109.167 18.798 109.578C18.7986 109.788 18.7809 109.998 18.7452 110.204C18.7199 109.996 18.7121 109.785 18.7218 109.576C18.7218 109.17 18.7218 108.584 18.7951 107.86C18.8627 107.013 18.9753 106.169 19.1323 105.333C19.5137 103.28 20.1477 101.28 21.0206 99.3753C21.4253 98.5005 21.8299 97.7314 22.1935 97.1025C22.5571 96.4736 22.8855 95.9761 23.126 95.6445C23.2451 95.4605 23.3784 95.2856 23.5247 95.1213Z" fill="#263238"/>
<path d="M10.9224 108.764H24.129L22.531 121.911H12.5673L10.9224 108.764Z" fill="#455A64"/>
<path d="M11.4058 120.493L12.5259 121.911H22.5305L23.6829 120.536L11.4058 120.493Z" fill="#263238"/>
<path d="M23.613 112.629C23.613 112.683 20.8744 112.726 17.4935 112.726C14.1127 112.726 11.3828 112.683 11.3828 112.629C11.3828 112.574 14.1215 112.534 17.5023 112.534C20.8832 112.534 23.613 112.577 23.613 112.629Z" fill="white"/>
<path d="M23.613 113.506C23.613 113.558 20.8744 113.601 17.4935 113.601C14.1127 113.601 11.3828 113.558 11.3828 113.506C11.3828 113.455 14.1215 113.409 17.5023 113.409C20.8832 113.409 23.613 113.452 23.613 113.506Z" fill="white"/>
<path d="M23.4486 114.353C23.4486 114.407 20.8096 114.45 17.5432 114.45C14.2767 114.45 11.6377 114.407 11.6377 114.353C11.6377 114.298 14.2767 114.255 17.5432 114.255C20.8096 114.255 23.4486 114.301 23.4486 114.353Z" fill="white"/>
<path d="M127.738 121.926C127.738 121.969 99.1407 122 63.8722 122C28.6036 122 0 121.969 0 121.926C0 121.883 28.5919 121.851 63.8722 121.851C99.1524 121.851 127.738 121.886 127.738 121.926Z" fill="#263238"/>
<path d="M43.9855 66.9078C43.192 66.9047 42.432 66.5953 41.872 66.0471C41.312 65.499 40.9976 64.7569 40.9976 63.9832V38.5569C41.0205 37.9151 41.3034 37.3083 41.7843 36.8695C42.2652 36.4306 42.9049 36.1955 43.5632 36.2155H46.0146C46.4969 36.2249 46.9723 36.1024 47.3868 35.8619C47.8014 35.6213 48.1386 35.2725 48.3603 34.8547L48.8852 33.8112C49.1057 33.3957 49.4407 33.0483 49.8524 32.8079C50.2642 32.5676 50.7364 32.4438 51.2163 32.4505H62.8542C63.2915 32.4449 63.7232 32.5468 64.1096 32.7466C64.496 32.9464 64.8245 33.2378 65.0651 33.594L65.6369 34.4774C65.8769 34.8333 66.205 35.1246 66.5909 35.3244C66.9767 35.5242 67.4079 35.6262 67.8448 35.6209H82.6818C83.3408 35.6001 83.9814 35.8353 84.4625 36.275C84.9437 36.7146 85.226 37.3225 85.2474 37.9651V63.9803C85.2474 64.756 84.9314 65.4999 84.3689 66.0483C83.8063 66.5968 83.0433 66.9049 82.2478 66.9049L43.9855 66.9078Z" fill="#B19CFE"/>
<g opacity="0.3">
<path d="M43.9855 66.9078C43.192 66.9047 42.432 66.5953 41.872 66.0471C41.312 65.499 40.9976 64.7569 40.9976 63.9832V38.5569C41.0205 37.9151 41.3034 37.3083 41.7843 36.8695C42.2652 36.4306 42.9049 36.1955 43.5632 36.2155H46.0146C46.4969 36.2249 46.9723 36.1024 47.3868 35.8619C47.8014 35.6213 48.1386 35.2725 48.3603 34.8547L48.8852 33.8112C49.1057 33.3957 49.4407 33.0483 49.8524 32.8079C50.2642 32.5676 50.7364 32.4438 51.2163 32.4505H62.8542C63.2915 32.4449 63.7232 32.5468 64.1096 32.7466C64.496 32.9464 64.8245 33.2378 65.0651 33.594L65.6369 34.4774C65.8769 34.8333 66.205 35.1246 66.5909 35.3244C66.9767 35.5242 67.4079 35.6262 67.8448 35.6209H82.6818C83.3408 35.6001 83.9814 35.8353 84.4625 36.275C84.9437 36.7146 85.226 37.3225 85.2474 37.9651V63.9803C85.2474 64.756 84.9314 65.4999 84.3689 66.0483C83.8063 66.5968 83.0433 66.9049 82.2478 66.9049L43.9855 66.9078Z" fill="black"/>
</g>
<path d="M66.3557 35.6352L56.9141 35.6152L56.0725 34.0771C55.7864 33.5778 55.3672 33.1631 54.8594 32.8768C54.3515 32.5905 53.7738 32.4432 53.1872 32.4505H43.9596C42.3175 32.4505 40.9863 33.6654 40.9863 35.1663V63.8231C40.9863 65.5384 42.4993 66.9078 44.3642 66.9078H81.8436C83.7115 66.9078 85.2215 65.527 85.2215 63.8231V37.7421C85.2215 37.1833 84.9939 36.6474 84.5886 36.2523C84.1833 35.8572 83.6337 35.6352 83.0605 35.6352H66.3557Z" fill="#B19CFE"/>
<path d="M71.1146 57.3509H66.9362C66.8585 57.3509 66.7839 57.3208 66.7289 57.2672C66.6739 57.2135 66.643 57.1408 66.643 57.065C66.643 56.9892 66.6739 56.9165 66.7289 56.8629C66.7839 56.8093 66.8585 56.7791 66.9362 56.7791H71.1146C72.1982 56.7812 73.2397 56.3705 74.0171 55.6346C74.7945 54.8987 75.2463 53.8958 75.2762 52.8397C75.306 51.7837 74.9115 50.7581 74.1768 49.9815C73.4421 49.205 72.4254 48.739 71.3433 48.683C71.2808 48.68 71.2208 48.6576 71.1723 48.619C71.1237 48.5804 71.0891 48.5277 71.0736 48.4686C70.7649 47.3064 70.1307 46.2508 69.2421 45.4198C68.3534 44.5888 67.2451 44.0152 66.0412 43.7631C64.8373 43.5109 63.5853 43.5902 62.4249 43.9921C61.2646 44.3939 60.2418 45.1025 59.4708 46.0386C59.4394 46.0771 59.3984 46.1071 59.3517 46.1256C59.3049 46.1441 59.2541 46.1506 59.204 46.1443C58.994 46.1179 58.7824 46.1045 58.5706 46.1043C57.1411 46.1366 55.7812 46.7129 54.7818 47.7101C53.7824 48.7073 53.2229 50.0461 53.2229 51.4403C53.2229 52.8345 53.7824 54.1733 54.7818 55.1705C55.7812 56.1677 57.1411 56.744 58.5706 56.7763H61.9573C62.0351 56.7763 62.1097 56.8064 62.1647 56.86C62.2197 56.9136 62.2506 56.9863 62.2506 57.0622C62.2506 57.138 62.2197 57.2107 62.1647 57.2643C62.1097 57.3179 62.0351 57.348 61.9573 57.348H58.556C56.9478 57.348 55.4054 56.7252 54.2682 55.6164C53.1311 54.5077 52.4922 53.004 52.4922 51.436C52.4922 49.868 53.1311 48.3643 54.2682 47.2556C55.4054 46.1468 56.9478 45.524 58.556 45.524C58.7362 45.524 58.9163 45.5336 59.0955 45.5526C59.9376 44.5713 61.0377 43.832 62.2779 43.4138C63.5181 42.9956 64.8516 42.9144 66.1355 43.1788C67.4195 43.4432 68.6054 44.0433 69.5662 44.9147C70.527 45.7861 71.2265 46.896 71.5896 48.1255C72.8076 48.236 73.9348 48.8008 74.7359 49.7022C75.5369 50.6036 75.9499 51.7718 75.8886 52.963C75.8273 54.1541 75.2964 55.2761 74.4069 56.0948C73.5174 56.9135 72.3378 57.3656 71.1146 57.3566V57.3509Z" fill="white"/>
<path d="M64.3586 59.9581C64.2809 59.9581 64.2063 59.9279 64.1513 59.8743C64.0963 59.8207 64.0654 59.748 64.0654 59.6722V52.2393C64.0654 52.1634 64.0963 52.0907 64.1513 52.0371C64.2063 51.9835 64.2809 51.9534 64.3586 51.9534C64.4364 51.9534 64.511 51.9835 64.566 52.0371C64.621 52.0907 64.6519 52.1634 64.6519 52.2393V59.6722C64.6519 59.748 64.621 59.8207 64.566 59.8743C64.511 59.9279 64.4364 59.9581 64.3586 59.9581Z" fill="white"/>
<path d="M66.5871 55.1981C66.5411 55.1985 66.4956 55.1884 66.4543 55.1685C66.4131 55.1487 66.3772 55.1196 66.3496 55.0837L64.4085 52.5451C64.4013 52.5368 64.3924 52.5301 64.3822 52.5256C64.372 52.5212 64.361 52.519 64.3498 52.5194C64.3392 52.5196 64.3288 52.5221 64.3192 52.5265C64.3096 52.5309 64.301 52.5373 64.2941 52.5451L62.2416 55.0123C62.1922 55.0718 62.1206 55.1097 62.0425 55.1178C61.9644 55.1258 61.8862 55.1033 61.8252 55.0551C61.7642 55.007 61.7252 54.9372 61.717 54.8611C61.7087 54.7849 61.7318 54.7087 61.7812 54.6492L63.8338 52.182C63.8983 52.1067 63.979 52.0462 64.0702 52.0047C64.1614 51.9632 64.2609 51.9417 64.3616 51.9419C64.4617 51.9433 64.5603 51.967 64.6497 52.011C64.7391 52.0551 64.8171 52.1185 64.8776 52.1963L66.8246 54.7378C66.848 54.7681 66.865 54.8026 66.8746 54.8394C66.8842 54.8762 66.8861 54.9144 66.8804 54.9519C66.8747 54.9895 66.8614 55.0255 66.8412 55.0579C66.821 55.0904 66.7945 55.1186 66.763 55.1409C66.7123 55.178 66.6505 55.1981 66.5871 55.1981Z" fill="white"/>
<path d="M58.6377 72.9314V71.6506H58.884V72.9228C58.884 73.4546 59.1391 73.6975 59.5848 73.6975C60.0305 73.6975 60.2885 73.4546 60.2885 72.9228V71.6506H60.526V72.9314C60.526 73.5746 60.1712 73.9062 59.5848 73.9062C58.9984 73.9062 58.6377 73.5746 58.6377 72.9314Z" fill="#263238"/>
<path d="M62.9512 73.0485C62.9578 73.1611 62.9402 73.2738 62.8997 73.3794C62.8591 73.4851 62.7964 73.5813 62.7156 73.662C62.6347 73.7427 62.5375 73.8061 62.4302 73.8481C62.3228 73.8901 62.2077 73.9099 62.0921 73.9062C61.9626 73.9103 61.8343 73.882 61.7193 73.8239C61.6043 73.7659 61.5065 73.68 61.4353 73.5745V74.5122H61.2036V72.2252H61.4265V72.5368C61.4965 72.4272 61.5948 72.3375 61.7117 72.2768C61.8285 72.2161 61.9597 72.1864 62.0921 72.1909C62.2076 72.1875 62.3225 72.2076 62.4297 72.2498C62.5368 72.292 62.6338 72.3554 62.7146 72.436C62.7953 72.5166 62.858 72.6126 62.8987 72.7181C62.9395 72.8235 62.9573 72.936 62.9512 73.0485ZM62.7196 73.0485C62.7144 72.9253 62.6722 72.8064 62.5983 72.7064C62.5243 72.6064 62.4218 72.5298 62.3036 72.4861C62.1854 72.4424 62.0566 72.4336 61.9332 72.4607C61.8099 72.4878 61.6974 72.5496 61.6098 72.6385C61.5222 72.7274 61.4634 72.8394 61.4405 72.9607C61.4177 73.0819 61.4319 73.2071 61.4814 73.3205C61.5309 73.4339 61.6135 73.5307 61.719 73.5987C61.8244 73.6667 61.948 73.7031 62.0745 73.7032C62.1618 73.7045 62.2485 73.6882 62.3291 73.6555C62.4097 73.6227 62.4826 73.5741 62.5431 73.5127C62.6036 73.4513 62.6505 73.3783 62.6809 73.2985C62.7112 73.2186 62.7244 73.1335 62.7196 73.0485Z" fill="#263238"/>
<path d="M63.4263 71.5161H63.6579V73.8889H63.4263V71.5161Z" fill="#263238"/>
<path d="M64.1328 73.0486C64.1328 72.8789 64.1844 72.7131 64.2811 72.5721C64.3778 72.431 64.5151 72.3211 64.6759 72.2562C64.8366 72.1913 65.0135 72.1743 65.1841 72.2074C65.3548 72.2405 65.5115 72.3222 65.6345 72.4421C65.7575 72.5621 65.8413 72.7149 65.8753 72.8812C65.9092 73.0476 65.8918 73.2201 65.8252 73.3768C65.7586 73.5335 65.6459 73.6674 65.5012 73.7617C65.3566 73.8559 65.1865 73.9062 65.0125 73.9062C64.8959 73.9102 64.7797 73.8908 64.6711 73.8491C64.5625 73.8074 64.4639 73.7443 64.3814 73.6639C64.2989 73.5834 64.2342 73.4873 64.1915 73.3814C64.1487 73.2756 64.1288 73.1623 64.1328 73.0486ZM65.6517 73.0486C65.646 72.926 65.6034 72.8078 65.5293 72.7086C65.4552 72.6094 65.3529 72.5336 65.235 72.4907C65.1171 72.4477 64.9889 72.4395 64.8662 72.467C64.7436 72.4945 64.6319 72.5566 64.5451 72.6455C64.4584 72.7343 64.4003 72.8461 64.3781 72.9669C64.356 73.0877 64.3707 73.2122 64.4205 73.3249C64.4703 73.4375 64.5529 73.5335 64.6582 73.6008C64.7635 73.668 64.8867 73.7037 65.0125 73.7032C65.0996 73.7046 65.186 73.6883 65.2664 73.6555C65.3467 73.6227 65.4192 73.574 65.4793 73.5125C65.5393 73.4509 65.5857 73.378 65.6153 73.2981C65.645 73.2183 65.6574 73.1333 65.6517 73.0486Z" fill="#263238"/>
<path d="M67.6546 72.8458V73.8892H67.4317V73.6262C67.3686 73.7202 67.2811 73.7962 67.1781 73.8464C67.0751 73.8966 66.9602 73.9193 66.8453 73.9121C66.4553 73.9121 66.2178 73.7148 66.2178 73.4232C66.2178 73.1316 66.3878 72.9487 66.8834 72.9487H67.4288V72.8458C67.4288 72.5599 67.2616 72.3998 66.942 72.3998C66.7281 72.3947 66.5196 72.4659 66.3556 72.5999L66.25 72.4284C66.4502 72.277 66.6976 72.1973 66.9508 72.2025C67.0427 72.1887 67.1365 72.1955 67.2253 72.2223C67.3141 72.2491 67.3955 72.2952 67.4633 72.3572C67.5311 72.4191 67.5835 72.4953 67.6167 72.58C67.6498 72.6646 67.6628 72.7555 67.6546 72.8458ZM67.42 73.3832V73.0973H66.8805C66.5462 73.0973 66.4377 73.226 66.4377 73.3975C66.4377 73.569 66.599 73.7148 66.8746 73.7148C66.9883 73.723 67.1018 73.6966 67.1995 73.6393C67.2972 73.5819 67.3742 73.4965 67.42 73.3947V73.3832Z" fill="#263238"/>
<path d="M69.8653 71.5162V73.889H69.6424V73.5545C69.5735 73.6653 69.4754 73.756 69.3584 73.8174C69.2413 73.8787 69.1096 73.9084 68.9768 73.9033C68.7435 73.9033 68.5198 73.813 68.3548 73.6521C68.1898 73.4913 68.0972 73.2731 68.0972 73.0457C68.0972 72.8182 68.1898 72.6001 68.3548 72.4392C68.5198 72.2784 68.7435 72.188 68.9768 72.188C69.1063 72.1836 69.2348 72.2118 69.3498 72.2699C69.4649 72.328 69.5626 72.414 69.6336 72.5197V71.5105L69.8653 71.5162ZM69.6366 73.0485C69.6308 72.926 69.5883 72.8077 69.5142 72.7086C69.4401 72.6094 69.3377 72.5336 69.2198 72.4907C69.1019 72.4477 68.9737 72.4395 68.8511 72.467C68.7284 72.4945 68.6168 72.5566 68.53 72.6454C68.4432 72.7343 68.3851 72.8461 68.363 72.9669C68.3408 73.0877 68.3555 73.2121 68.4053 73.3248C68.4551 73.4375 68.5378 73.5335 68.643 73.6007C68.7483 73.668 68.8715 73.7036 68.9973 73.7032C69.0843 73.7041 69.1706 73.6876 69.2507 73.6546C69.3308 73.6216 69.4031 73.5729 69.4631 73.5115C69.5231 73.4501 69.5694 73.3773 69.5993 73.2976C69.6291 73.218 69.6418 73.1332 69.6366 73.0485Z" fill="#263238"/>
<path d="M70.3644 73.7291C70.3636 73.7065 70.3675 73.6839 70.3758 73.6628C70.3841 73.6416 70.3968 73.6224 70.4129 73.6061C70.4291 73.5898 70.4484 73.5769 70.4698 73.5681C70.4912 73.5592 70.5141 73.5547 70.5374 73.5547C70.5607 73.5547 70.5838 73.5592 70.6054 73.568C70.6269 73.5768 70.6464 73.5897 70.6628 73.6059C70.6792 73.6222 70.6921 73.6414 70.7008 73.6626C70.7094 73.6837 70.7137 73.7063 70.7133 73.7291C70.7133 73.7748 70.6949 73.8188 70.6619 73.8514C70.629 73.884 70.5843 73.9027 70.5374 73.9035C70.5143 73.9031 70.4915 73.8983 70.4703 73.8893C70.4491 73.8804 70.4299 73.8674 70.4138 73.8512C70.3977 73.835 70.3851 73.8159 70.3766 73.7949C70.3681 73.774 70.364 73.7516 70.3644 73.7291Z" fill="#263238"/>
<path d="M71.0586 73.7291C71.0582 73.7066 71.0624 73.6842 71.0709 73.6632C71.0794 73.6423 71.092 73.6231 71.1081 73.6069C71.1241 73.5908 71.1433 73.5778 71.1645 73.5688C71.1857 73.5599 71.2085 73.5551 71.2316 73.5547C71.255 73.5547 71.2781 73.5592 71.2996 73.568C71.3212 73.5768 71.3407 73.5897 71.3571 73.6059C71.3734 73.6222 71.3863 73.6414 71.395 73.6626C71.4037 73.6837 71.4079 73.7063 71.4076 73.7291C71.4076 73.7748 71.3891 73.8188 71.3562 73.8514C71.3233 73.884 71.2785 73.9027 71.2316 73.9035C71.2085 73.9031 71.1857 73.8983 71.1645 73.8893C71.1433 73.8804 71.1241 73.8674 71.1081 73.8512C71.092 73.835 71.0794 73.8159 71.0709 73.7949C71.0624 73.774 71.0582 73.7516 71.0586 73.7291Z" fill="#263238"/>
<path d="M71.754 73.7291C71.7532 73.7065 71.7571 73.6839 71.7655 73.6628C71.7738 73.6416 71.7864 73.6224 71.8026 73.6061C71.8187 73.5898 71.838 73.5769 71.8594 73.5681C71.8808 73.5592 71.9038 73.5547 71.927 73.5547C71.9504 73.5547 71.9735 73.5592 71.995 73.568C72.0166 73.5768 72.0361 73.5897 72.0525 73.6059C72.0688 73.6222 72.0817 73.6414 72.0904 73.6626C72.0991 73.6837 72.1033 73.7063 72.1029 73.7291C72.1029 73.7748 72.0845 73.8188 72.0516 73.8514C72.0187 73.884 71.9739 73.9027 71.927 73.9035C71.9039 73.9031 71.8811 73.8983 71.8599 73.8893C71.8387 73.8804 71.8195 73.8674 71.8035 73.8512C71.7874 73.835 71.7747 73.8159 71.7663 73.7949C71.7578 73.774 71.7536 73.7516 71.754 73.7291Z" fill="#263238"/>
<path d="M86.6844 77.7141H40.9538C39.8801 77.7141 39.0098 78.5627 39.0098 79.6095V80.1613C39.0098 81.2081 39.8801 82.0567 40.9538 82.0567H86.6844C87.7581 82.0567 88.6285 81.2081 88.6285 80.1613V79.6095C88.6285 78.5627 87.7581 77.7141 86.6844 77.7141Z" fill="#E0E0E0"/>
<path d="M61.8751 77.7141H40.9538C39.8801 77.7141 39.0098 78.5627 39.0098 79.6095V80.1613C39.0098 81.2081 39.8801 82.0567 40.9538 82.0567H61.8751C62.9487 82.0567 63.8191 81.2081 63.8191 80.1613V79.6095C63.8191 78.5627 62.9487 77.7141 61.8751 77.7141Z" fill="#EEA886"/>
<g opacity="0.3">
<path d="M42.7571 77.7141L40.1182 81.7994L40.5316 81.9795C40.6487 82.0307 40.7756 82.057 40.904 82.0567H41.7426L44.6103 77.7141H42.7571Z" fill="white"/>
</g>
<g opacity="0.3">
<path d="M47.478 77.7141L44.6719 82.0567H46.4635L49.3282 77.7141H47.478Z" fill="white"/>
</g>
<g opacity="0.3">
<path d="M52.1958 77.7141L49.3896 82.0567H51.1812L54.0489 77.7141H52.1958Z" fill="white"/>
</g>
<g opacity="0.3">
<path d="M56.917 77.7141L54.1079 82.0567H55.8995L58.7672 77.7141H56.917Z" fill="white"/>
</g>
<g opacity="0.3">
<path d="M61.6352 77.7141L58.8291 82.0567H60.6207L62.8785 78.6261L63.1482 78.2544C62.8022 77.8914 62.2715 77.7398 61.6352 77.7141Z" fill="white"/>
</g>
<path d="M86.7403 82.0566C86.7403 82.0566 86.8312 82.0566 87.0071 82.028C87.2686 81.993 87.5194 81.9043 87.7431 81.7679C88.1101 81.5489 88.3918 81.2169 88.5436 80.8245C88.6395 80.5763 88.6834 80.3119 88.6726 80.0469C88.6908 79.745 88.6671 79.4421 88.6023 79.1463C88.5091 78.8033 88.318 78.4931 88.0513 78.2517C87.7845 78.0103 87.4529 77.8477 87.0951 77.7827C86.8932 77.7547 86.6891 77.7441 86.4852 77.7512H84.4796H78.0815L41.0419 77.7712C40.6055 77.7716 40.1827 77.9193 39.8454 78.1893C39.5081 78.4593 39.2771 78.8348 39.1917 79.2521C39.1591 79.4621 39.1473 79.6746 39.1565 79.8868C39.1471 80.0983 39.1619 80.3102 39.2005 80.5186C39.2883 80.9227 39.5137 81.2861 39.8399 81.5497C40.1662 81.8134 40.5743 81.9618 40.998 81.9708H44.8978H54.7324L71.3844 81.988L82.6118 82.0109L85.6642 82.0252H82.6118L71.3844 82.0509L54.7324 82.0652H44.8978H40.998C40.5363 82.0611 40.0897 81.9041 39.7317 81.6199C39.3736 81.3358 39.1253 80.9413 39.0275 80.5014C38.9859 80.2828 38.9701 80.0603 38.9806 79.8382C38.9701 79.6164 38.9829 79.3942 39.0187 79.1749C39.1099 78.7233 39.3592 78.3167 39.724 78.0247C40.0888 77.7326 40.5464 77.5733 41.0185 77.574L78.0581 77.5969H84.4561H86.4618C86.6707 77.5891 86.8799 77.6015 87.0863 77.634C87.4557 77.7027 87.7974 77.8722 88.072 78.1226C88.3466 78.3731 88.5426 78.6944 88.6375 79.0491C88.6999 79.351 88.7216 79.6595 88.702 79.9668C88.7093 80.2379 88.6625 80.5078 88.5641 80.7616C88.4038 81.1592 88.1131 81.4939 87.7373 81.7135C87.5078 81.8475 87.2521 81.9332 86.9866 81.9651C86.9076 82.0029 86.8251 82.0335 86.7403 82.0566Z" fill="#263238"/>
</svg>
