<svg width="158" height="122" viewBox="0 0 158 122" fill="none" xmlns="http://www.w3.org/2000/svg">
<path d="M157.73 107.754H0V107.833H157.73V107.754Z" fill="#EBEBEB"/>
<path d="M141.925 112.83H131.477V112.908H141.925V112.83Z" fill="#EBEBEB"/>
<path d="M104.486 113.688H101.745V113.766H104.486V113.688Z" fill="#EBEBEB"/>
<path d="M131.162 109.902H125.108V109.981H131.162V109.902Z" fill="#EBEBEB"/>
<path d="M30.1735 110.432H16.5488V110.511H30.1735V110.432Z" fill="#EBEBEB"/>
<path d="M34.9812 110.432H32.9844V110.511H34.9812V110.432Z" fill="#EBEBEB"/>
<path d="M71.0259 111.763H41.4736V111.842H71.0259V111.763Z" fill="#EBEBEB"/>
<path d="M74.7639 93.6843H13.8518C13.3746 93.6835 12.9173 93.4933 12.5802 93.1556C12.2431 92.8179 12.0537 92.3602 12.0537 91.883V6.25791C12.0579 5.78347 12.249 5.32982 12.5857 4.99551C12.9224 4.6612 13.3774 4.47322 13.8518 4.47241H74.7639C75.2416 4.47241 75.6998 4.66219 76.0376 4.99999C76.3754 5.3378 76.5651 5.79596 76.5651 6.27368V91.883C76.5651 92.3608 76.3754 92.8189 76.0376 93.1567C75.6998 93.4946 75.2416 93.6843 74.7639 93.6843ZM13.8518 4.5355C13.3956 4.53634 12.9583 4.71818 12.6359 5.0411C12.3136 5.36402 12.1326 5.80165 12.1326 6.25791V91.883C12.1326 92.3393 12.3136 92.7769 12.6359 93.0999C12.9583 93.4228 13.3956 93.6046 13.8518 93.6055H74.7639C75.2204 93.6046 75.658 93.4229 75.9809 93.1001C76.3037 92.7772 76.4854 92.3396 76.4863 91.883V6.25791C76.4854 5.80136 76.3037 5.36374 75.9809 5.04091C75.658 4.71807 75.2204 4.53634 74.7639 4.5355H13.8518Z" fill="#EBEBEB"/>
<path d="M143.001 93.6843H82.0854C81.608 93.6835 81.1503 93.4934 80.8127 93.1558C80.4751 92.8182 80.285 92.3605 80.2842 91.883V6.25791C80.2892 5.78318 80.481 5.32954 80.8182 4.99532C81.1554 4.66109 81.6107 4.47322 82.0854 4.47241H143.001C143.475 4.47405 143.929 4.6624 144.265 4.99662C144.601 5.33084 144.791 5.78401 144.796 6.25791V91.883C144.796 92.3597 144.607 92.8169 144.27 93.1545C143.934 93.4921 143.477 93.6826 143.001 93.6843ZM82.0854 4.5355C81.6289 4.53634 81.1913 4.71807 80.8684 5.04091C80.5456 5.36374 80.3639 5.80136 80.363 6.25791V91.883C80.3639 92.3396 80.5456 92.7772 80.8684 93.1001C81.1913 93.4229 81.6289 93.6046 82.0854 93.6055H143.001C143.457 93.6046 143.895 93.4229 144.218 93.1001C144.54 92.7772 144.722 92.3396 144.723 91.883V6.25791C144.722 5.80136 144.54 5.36374 144.218 5.04091C143.895 4.71807 143.457 4.53634 143.001 4.5355H82.0854Z" fill="#EBEBEB"/>
<path d="M130.54 58.5799V19.6333H104.502V58.5799H130.54Z" fill="#E6E6E6"/>
<path d="M129.749 58.5767V19.6301H103.711V58.5767H129.749Z" fill="#FFE5D8"/>
<path d="M126.402 22.9773H107.058V55.233H126.402V22.9773Z" fill="white"/>
<path d="M107.499 55.233V22.9773H107.061V55.233H107.499Z" fill="#E6E6E6"/>
<path d="M67.77 107.754H78.811V72.1417H67.77V107.754Z" fill="#E6E6E6"/>
<path d="M69.8649 107.754H67.7671V102.7H72.0636L69.8649 107.754Z" fill="#F0F0F0"/>
<path d="M126.77 107.748H137.812V72.1354H126.77V107.748Z" fill="#E6E6E6"/>
<path d="M67.7701 107.012H128.6V72.1416H67.7701V107.012Z" fill="#F0F0F0"/>
<path d="M69.3945 74.2679V82.2837H106.347V74.2679H69.3945Z" fill="#E6E6E6"/>
<path d="M107.758 74.2647V82.2805H126.976V74.2647H107.758Z" fill="#E6E6E6"/>
<path d="M115.458 75.2331H119.259C120.786 75.2659 122.294 74.889 123.625 74.1416H111.095C112.426 74.8884 113.932 75.2653 115.458 75.2331Z" fill="#F0F0F0"/>
<path d="M76.9058 75.2331H98.4423C99.969 75.2659 101.477 74.889 102.808 74.1416H72.5557C73.8828 74.886 75.3845 75.2627 76.9058 75.2331Z" fill="#F0F0F0"/>
<path d="M69.3979 84.577V92.5928H106.351V84.577H69.3979Z" fill="#E6E6E6"/>
<path d="M107.758 84.577V92.5928H126.976V84.577H107.758Z" fill="#E6E6E6"/>
<path d="M115.458 85.5454H119.259C120.786 85.5777 122.293 85.202 123.625 84.457H111.095C112.427 85.2015 113.933 85.5772 115.458 85.5454Z" fill="#F0F0F0"/>
<path d="M76.9058 85.5453H98.4423C99.969 85.5781 101.477 85.2012 102.808 84.4539H72.5557C73.8828 85.1982 75.3845 85.575 76.9058 85.5453Z" fill="#F0F0F0"/>
<path d="M69.3945 94.8895V102.905H106.347V94.8895H69.3945Z" fill="#E6E6E6"/>
<path d="M107.758 94.8895V102.905H126.976V94.8895H107.758Z" fill="#E6E6E6"/>
<path d="M115.458 95.8547H119.259C120.786 95.8875 122.294 95.5106 123.625 94.7632H111.095C112.426 95.5097 113.932 95.8866 115.458 95.8547Z" fill="#F0F0F0"/>
<path d="M76.909 95.8547H98.4423C99.9699 95.8871 101.478 95.5102 102.811 94.7632H72.5557C73.8836 95.5084 75.3866 95.8852 76.909 95.8547Z" fill="#F0F0F0"/>
<path d="M126.502 107.754H128.597V102.7H124.304L126.502 107.754Z" fill="#F0F0F0"/>
<path d="M132.25 65.804C132.25 65.804 131.935 69.4223 119.632 69.4223C107.329 69.4223 107.032 65.804 107.032 65.804H132.25Z" fill="#FAFAFA"/>
<path d="M132.25 68.5107C132.25 68.5107 131.934 72.1291 119.632 72.1291C107.329 72.1291 107.048 68.5107 107.048 68.5107H132.25Z" fill="#EBEBEB"/>
<path d="M46.2432 107.754H58.8678L55.1265 75.2837H46.2432V107.754Z" fill="#E6E6E6"/>
<path d="M24.937 107.754H53.0129L55.9751 69.7505H27.8992L24.937 107.754Z" fill="#E0E0E0"/>
<path d="M22.915 107.754H52.1329L55.095 69.7505H25.8804L22.915 107.754Z" fill="#F5F5F5"/>
<path d="M49.3728 104.757L51.8681 72.7441H28.6408L26.1455 104.757H49.3728Z" fill="white"/>
<path d="M91.1739 10.9993H19.6309V63.1415H91.1739V10.9993Z" fill="#EBEBEB"/>
<path d="M88.7262 13.7563H22.0791V60.3812H88.7262V13.7563Z" fill="#FAFAFA"/>
<path d="M36.42 60.3844H29.4263L36.0131 13.7563H43.0068L36.42 60.3844Z" fill="white"/>
<path d="M53.7039 60.3844H46.707L53.2938 13.7563H60.2907L53.7039 60.3844Z" fill="white"/>
<path d="M75.9848 60.3844H72.4863L79.0731 13.7563H82.5716L75.9848 60.3844Z" fill="white"/>
<path d="M59.8554 60.3844H56.3569L62.9437 13.7563H66.4422L59.8554 60.3844Z" fill="white"/>
<path d="M44.4196 13.7563H41.123V60.3812H44.4196V13.7563Z" fill="#EBEBEB"/>
<path d="M44.4198 60.3845H45.1548L45.1548 13.7596H44.4198L44.4198 60.3845Z" fill="#E0E0E0"/>
<path d="M91.1739 63.1416H91.7007V10.9993H91.1739V63.1416Z" fill="#E0E0E0"/>
<path d="M78.8646 122C112.645 122 140.029 120.401 140.029 118.429C140.029 116.457 112.645 114.858 78.8646 114.858C45.0844 114.858 17.7002 116.457 17.7002 118.429C17.7002 120.401 45.0844 122 78.8646 122Z" fill="#F5F5F5"/>
<path d="M68.6738 53.2206L67.3047 56.9588C67.1924 57.2812 66.995 57.5672 66.7335 57.7865C66.4719 58.0059 66.1559 58.1504 65.8188 58.2049L47.6263 60.9588C46.4528 61.1386 45.7588 62.3437 46.0774 63.6497L52.4465 89.877C52.762 91.1861 53.9734 92.101 55.1469 91.9243L98.45 85.3659C99.6235 85.1861 100.317 83.9842 100.002 82.675L92.3269 51.0692C92.0114 49.76 90.8001 48.8452 89.6266 49.0218L70.1596 51.9588C69.8207 52.0145 69.5035 52.1614 69.2417 52.3837C68.98 52.606 68.7837 52.8953 68.6738 53.2206Z" fill="#334042"/>
<path opacity="0.3" d="M68.6738 53.2206L67.3047 56.9588C67.1924 57.2812 66.995 57.5672 66.7335 57.7865C66.4719 58.0059 66.1559 58.1504 65.8189 58.2049L47.6263 60.9588C46.4528 61.1386 45.7588 62.3437 46.0774 63.6497L52.4465 89.877C52.762 91.1861 53.9734 92.101 55.1469 91.9243L98.45 85.3659C99.6235 85.1861 100.317 83.9842 100.002 82.675L92.3269 51.0692C92.0114 49.76 90.8001 48.8452 89.6266 49.0218L70.1596 51.9588C69.8207 52.0145 69.5035 52.1614 69.2417 52.3837C68.98 52.606 68.7837 52.8953 68.6738 53.2206Z" fill="black"/>
<path d="M59.5747 14.6965C60.0015 14.6973 60.428 14.7204 60.8523 14.7659C62.4673 12.528 64.6556 10.7668 67.1869 9.66753C69.7183 8.56826 72.4992 8.17162 75.2369 8.51933C77.9747 8.86704 80.5681 9.94624 82.7443 11.6434C84.9205 13.3405 86.5991 15.5929 87.6033 18.1634C90.2107 18.6099 92.5552 20.0195 94.1725 22.1129C95.7898 24.2062 96.5618 26.8307 96.3357 29.4664C96.1095 32.102 94.9016 34.5566 92.9513 36.3438C91.001 38.131 88.4505 39.1205 85.8052 39.1162H59.5747C56.3705 39.0647 53.3149 37.7557 51.0671 35.4715C48.8193 33.1873 47.5596 30.111 47.5596 26.9064C47.5596 23.7017 48.8193 20.6254 51.0671 18.3413C53.3149 16.0571 56.3705 14.748 59.5747 14.6965Z" fill="#B19CFE"/>
<path d="M60.707 34.845V65.2868H83.0289V41.4728L76.4043 34.845H60.707Z" fill="#E0E0E0"/>
<path opacity="0.4" d="M76.4043 41.4728V34.845L83.0289 41.4728H76.4043Z" fill="#B19CFE"/>
<path d="M61.4262 91.6434L59.8447 91.8823L59.8923 92.1974L61.4738 91.9585L61.4262 91.6434Z" fill="#B19CFE"/>
<path d="M68.7155 90.5466L63.1914 91.3811L63.239 91.6961L68.7631 90.8617L68.7155 90.5466Z" fill="#B19CFE"/>
<path d="M76.8713 56.0407L74.8114 59.476C74.6302 59.7784 74.3854 60.0378 74.094 60.2361C73.8025 60.4343 73.4714 60.5668 73.1236 60.6243L54.9343 63.3814C54.3544 63.482 53.83 63.7878 53.457 64.2431C53.084 64.6983 52.8872 65.2726 52.9027 65.8609L53.9595 89.7854C53.9634 90.0583 54.0263 90.3272 54.1439 90.5736C54.2615 90.8199 54.431 91.0379 54.6408 91.2126C54.8505 91.3873 55.0956 91.5146 55.3592 91.5857C55.6227 91.6568 55.8985 91.67 56.1677 91.6245L99.4708 85.0629C100.051 84.9624 100.575 84.6566 100.948 84.2013C101.321 83.746 101.518 83.1718 101.502 82.5834L100.241 53.7567C100.237 53.4838 100.174 53.2149 100.056 52.9685C99.9385 52.7222 99.769 52.5042 99.5593 52.3295C99.3495 52.1548 99.1044 52.0275 98.8409 51.9564C98.5773 51.8853 98.3015 51.8721 98.0323 51.9176L78.5495 54.8798C78.2021 54.9392 77.8718 55.0738 77.5819 55.2744C77.292 55.4749 77.0494 55.7365 76.8713 56.0407Z" fill="#A0A0A0"/>
<path d="M77.5055 30.4317C77.4279 30.4321 77.3519 30.4094 77.2872 30.3664C77.2225 30.3234 77.172 30.2622 77.1422 30.1905C77.1125 30.1188 77.1047 30.0398 77.12 29.9636C77.1352 29.8875 77.1728 29.8176 77.2279 29.7629C78.2841 28.703 79.0026 27.354 79.2926 25.886C79.5826 24.4181 79.4311 22.8972 78.8573 21.5153C78.2835 20.1334 77.3131 18.9525 76.0686 18.1218C74.8241 17.291 73.3614 16.8477 71.8651 16.8477C70.3688 16.8477 68.9061 17.291 67.6616 18.1218C66.4171 18.9525 65.4467 20.1334 64.8729 21.5153C64.2991 22.8972 64.1477 24.4181 64.4377 25.886C64.7277 27.354 65.4461 28.703 66.5023 29.7629C66.5389 29.7993 66.568 29.8425 66.5878 29.8902C66.6077 29.9378 66.6179 29.9889 66.6179 30.0405C66.6179 30.0921 66.6077 30.1432 66.5878 30.1909C66.568 30.2385 66.5389 30.2818 66.5023 30.3181C66.4281 30.3906 66.3284 30.4311 66.2247 30.4311C66.121 30.4311 66.0213 30.3906 65.9471 30.3181C64.7775 29.1486 63.981 27.6585 63.6583 26.0362C63.3356 24.414 63.5012 22.7325 64.1341 21.2043C64.7671 19.6762 65.8389 18.3701 67.2142 17.4512C68.5895 16.5322 70.2064 16.0417 71.8604 16.0417C73.5144 16.0417 75.1313 16.5322 76.5066 17.4512C77.8818 18.3701 78.9537 19.6762 79.5867 21.2043C80.2196 22.7325 80.3852 24.414 80.0625 26.0362C79.7398 27.6585 78.9433 29.1486 77.7737 30.3181C77.7022 30.3891 77.6062 30.4297 77.5055 30.4317Z" fill="white"/>
<path d="M75.2215 32.7755V24.0467C75.2215 23.6694 75.0716 23.3075 74.8048 23.0407C74.538 22.7739 74.1761 22.624 73.7988 22.624H69.9375C69.5602 22.624 69.1983 22.7739 68.9315 23.0407C68.6647 23.3075 68.5148 23.6694 68.5148 24.0467V32.7755H67.0605L71.8681 36.9175L76.6726 32.7755H75.2215Z" fill="white"/>
<path d="M136.394 105.636C136.481 103.423 136.451 101.207 136.305 98.9972C135.977 94.4393 135.281 89.9154 134.223 85.4697C133.643 82.965 132.93 80.5052 132.184 78.0454C132.162 77.9725 132.044 77.9921 132.064 78.0707C134.366 86.7375 136.254 95.6791 136.125 104.688C136.089 107.212 135.797 109.686 135.564 112.191C135.564 112.258 135.668 112.283 135.685 112.216C136.113 110.048 136.35 107.846 136.394 105.636Z" fill="#23D0D4"/>
<path d="M132.063 78.0706C132.063 78.0706 128.577 86.9197 129.36 89.0092C130.142 91.0988 131.749 91.5336 131.749 91.5336C131.749 91.5336 129.615 94.5796 131.107 97.4376C132.599 100.296 135.909 100.158 136.128 103.398C136.128 103.387 136.327 89.8423 132.063 78.0706Z" fill="#23D0D4"/>
<path d="M135.749 97.7939C135.755 97.7785 135.755 97.7616 135.749 97.7462C135.291 91.7054 134.156 85.735 132.367 79.947C132.367 79.9274 132.333 79.933 132.339 79.947C133.029 82.5368 133.639 85.1387 134.17 87.7528C133.701 87.31 133.128 86.9918 132.504 86.8272C132.504 86.8272 132.487 86.8272 132.504 86.844C133.16 87.0854 133.749 87.4785 134.224 87.9912C134.325 88.5044 134.425 89.0177 134.504 89.531C133.727 88.6615 132.644 88.2296 131.565 87.8173C131.548 87.8173 131.542 87.8369 131.565 87.8425C132.687 88.2997 133.808 88.8915 134.574 89.862C134.84 91.3279 135.073 92.8014 135.275 94.2823C134.712 93.6926 133.99 93.2785 133.197 93.0903C133.172 93.0903 133.158 93.1211 133.183 93.1267C134.002 93.3641 134.735 93.8337 135.292 94.4787C135.362 95.0003 135.43 95.5192 135.491 96.0409C135.055 95.673 134.562 95.3767 134.033 95.163C134.019 95.163 134.01 95.1798 134.033 95.1855C134.573 95.4186 135.068 95.7452 135.494 96.1503H135.511C135.57 96.6468 135.629 97.1404 135.676 97.6369C134.892 96.6882 133.873 95.9611 132.72 95.5276C132.698 95.5276 132.687 95.5529 132.72 95.5613C133.858 96.0647 134.857 96.8343 135.634 97.8051C135.643 97.8161 135.654 97.8243 135.667 97.8283C135.68 97.8323 135.694 97.8321 135.707 97.8276C135.783 98.5905 135.85 99.3506 135.906 100.116H135.923C135.867 99.3562 135.814 98.5708 135.749 97.7939Z" fill="#263238"/>
<path d="M132.961 85.9494C132.33 85.5573 131.61 85.3324 130.869 85.2959C130.865 85.2959 130.861 85.2974 130.859 85.3C130.856 85.3026 130.854 85.3062 130.854 85.3099C130.854 85.3136 130.856 85.3172 130.859 85.3198C130.861 85.3225 130.865 85.3239 130.869 85.3239C131.585 85.4564 132.282 85.6837 132.938 85.9999C132.961 86.0167 132.975 85.969 132.961 85.9494Z" fill="#263238"/>
<path d="M133.371 95.3201C132.886 95.0433 132.353 94.8614 131.8 94.7844C131.798 94.7844 131.796 94.7848 131.795 94.7855C131.793 94.7862 131.792 94.7872 131.79 94.7885C131.789 94.7898 131.788 94.7914 131.787 94.7931C131.786 94.7948 131.786 94.7966 131.786 94.7984C131.786 94.8003 131.786 94.8021 131.787 94.8038C131.788 94.8055 131.789 94.8071 131.79 94.8084C131.792 94.8097 131.793 94.8107 131.795 94.8114C131.796 94.8121 131.798 94.8125 131.8 94.8125C132.342 94.9215 132.866 95.1056 133.357 95.3594C133.374 95.3706 133.393 95.3342 133.371 95.3201Z" fill="#263238"/>
<path d="M145.56 89.144C144.085 90.1664 142.731 91.3529 141.524 92.6808C140.279 94.0824 139.318 95.7122 138.694 97.4798C137.371 101.162 136.659 105.036 136.585 108.949C136.541 111.116 136.75 113.281 137.207 115.4C137.212 115.414 137.221 115.427 137.234 115.434C137.247 115.442 137.263 115.445 137.278 115.442C137.293 115.44 137.306 115.431 137.315 115.419C137.325 115.407 137.329 115.392 137.328 115.377C136.759 111.636 136.781 107.828 137.393 104.093C137.99 100.447 138.932 96.4504 141.258 93.4745C142.525 91.8534 144.104 90.58 145.667 89.2674C145.748 89.2 145.644 89.085 145.56 89.144Z" fill="#23D0D4"/>
<path d="M137.098 106.315C137.938 104.957 138.924 103.695 140.04 102.554C141.785 100.809 143.255 99.5722 143.479 98.4166C143.703 97.261 141.734 96.414 141.734 96.414C141.734 96.414 144.147 96.8487 144.82 95.8362C145.493 94.8237 145.799 88.9561 145.799 88.9561C145.799 88.9561 141.406 92.0918 139.348 96.4841C137.289 100.876 137.098 106.315 137.098 106.315Z" fill="#23D0D4"/>
<path d="M144.22 94.4591C143.93 94.418 143.636 94.4077 143.345 94.4282C143.311 94.4282 143.314 94.4899 143.345 94.4899C143.625 94.4899 143.922 94.4899 144.211 94.4899C144.215 94.4898 144.218 94.4885 144.221 94.4862C144.224 94.484 144.226 94.481 144.227 94.4776C144.228 94.4741 144.227 94.4705 144.226 94.4672C144.225 94.4639 144.223 94.461 144.22 94.4591Z" fill="#263238"/>
<path d="M141.058 100.15C140.594 100.162 140.135 100.257 139.704 100.43C139.704 100.43 139.704 100.453 139.704 100.45C140.15 100.343 140.601 100.301 141.053 100.226C141.095 100.212 141.095 100.15 141.058 100.15Z" fill="#263238"/>
<path d="M140.111 98.1837C139.918 98.1818 139.725 98.1997 139.536 98.237C139.531 98.237 139.527 98.2388 139.524 98.242C139.521 98.2451 139.519 98.2494 139.519 98.2538C139.519 98.2583 139.521 98.2626 139.524 98.2657C139.527 98.2689 139.531 98.2707 139.536 98.2707C139.728 98.2811 139.921 98.2717 140.111 98.2426C140.117 98.2407 140.123 98.2368 140.127 98.2315C140.13 98.2262 140.133 98.2198 140.133 98.2132C140.133 98.2066 140.13 98.2002 140.127 98.1949C140.123 98.1896 140.117 98.1857 140.111 98.1837Z" fill="#263238"/>
<path d="M124.227 95.3706C125.656 95.854 127.025 96.4986 128.308 97.2919C129.641 98.1421 130.795 99.2433 131.708 100.534C133.632 103.21 135.105 106.183 136.069 109.336C136.605 111.081 136.936 112.882 137.056 114.704C137.054 114.716 137.047 114.726 137.038 114.734C137.028 114.741 137.017 114.745 137.004 114.745C136.992 114.745 136.981 114.741 136.971 114.734C136.962 114.726 136.955 114.716 136.953 114.704C136.548 111.545 135.651 108.469 134.294 105.588C132.964 102.764 131.281 99.7573 128.712 97.8865C127.31 96.8683 125.739 96.2036 124.168 95.4968C124.087 95.4575 124.146 95.3425 124.227 95.3706Z" fill="#23D0D4"/>
<path d="M135.042 107.311C134.05 106.406 132.961 105.613 131.795 104.946C129.98 103.939 128.504 103.263 128.053 102.394C127.601 101.524 129.004 100.372 129.004 100.372C129.004 100.372 127.153 101.278 126.384 100.613C125.616 99.9481 124 95.2837 124 95.2837C124 95.2837 128.277 96.8067 130.95 99.8892C133.623 102.972 135.042 107.311 135.042 107.311Z" fill="#23D0D4"/>
<path d="M134.821 106.346C132.681 102.329 129.825 98.6972 125.913 96.2991C126.934 96.9569 127.891 97.7081 128.773 98.5429C127.978 98.4997 127.184 98.6671 126.474 99.0281C126.46 99.0281 126.474 99.0562 126.488 99.0506C127.243 98.7679 128.046 98.6327 128.852 98.6523C128.861 98.6549 128.871 98.6549 128.88 98.6523L129.292 99.0534C128.878 99.0723 128.466 99.1267 128.061 99.2161C128.061 99.2161 128.061 99.2357 128.061 99.2329C128.488 99.1525 128.922 99.1168 129.357 99.1263C130.073 99.8509 130.748 100.616 131.376 101.418C131.088 101.378 130.795 101.399 130.515 101.48C130.511 101.48 130.507 101.481 130.503 101.484C130.5 101.488 130.498 101.492 130.498 101.496C130.498 101.501 130.5 101.505 130.503 101.508C130.507 101.511 130.511 101.513 130.515 101.513C130.82 101.478 131.127 101.473 131.432 101.499C131.55 101.648 131.668 101.796 131.783 101.948C130.909 101.894 130.033 101.979 129.186 102.2C129.186 102.2 129.186 102.223 129.186 102.22C130.064 102.049 130.96 101.99 131.853 102.046C131.963 102.192 132.066 102.327 132.173 102.486C131.652 102.474 131.132 102.533 130.627 102.663C130.608 102.663 130.613 102.7 130.627 102.694C131.152 102.582 131.69 102.54 132.226 102.571C132.689 103.204 133.129 103.852 133.553 104.509C133.327 104.467 133.094 104.48 132.874 104.548C132.874 104.548 132.874 104.57 132.874 104.568C133.12 104.549 133.367 104.561 133.609 104.604C133.99 105.196 134.358 105.796 134.711 106.396C134.767 106.438 134.849 106.399 134.821 106.346Z" fill="#263238"/>
<path d="M131.492 103.014C131.072 102.987 130.65 103.038 130.249 103.165C130.249 103.165 130.249 103.188 130.249 103.185C130.658 103.116 131.071 103.074 131.486 103.059C131.517 103.059 131.522 103.016 131.492 103.014Z" fill="#263238"/>
<path d="M127.761 98.1194C127.573 98.1065 127.385 98.1178 127.2 98.153C127.177 98.153 127.186 98.1895 127.2 98.1867C127.388 98.1671 127.573 98.1867 127.761 98.1699C127.768 98.1699 127.774 98.1672 127.779 98.1625C127.783 98.1577 127.786 98.1513 127.786 98.1446C127.786 98.1379 127.783 98.1315 127.779 98.1268C127.774 98.122 127.768 98.1194 127.761 98.1194Z" fill="#263238"/>
<path d="M140.562 120.591H130.905L132.28 110.505L132.633 107.919H138.832L139.185 110.505L140.562 120.591Z" fill="#455A64"/>
<path d="M139.185 110.505H132.279L132.633 107.919H138.831L139.185 110.505Z" fill="#263238"/>
<path d="M139.718 107.022H131.747V109.212H139.718V107.022Z" fill="#455A64"/>
</svg>
