<svg width="64" height="91" viewBox="0 0 64 91" fill="none" xmlns="http://www.w3.org/2000/svg">
  <path
    d="M19.2593 28C19.2593 28 19.6285 43.1445 25.4018 49.1698C29.6908 53.646 40 53.9811 40 53.9811C40 53.9811 29.6908 53.6747 25.4018 58.1509C19.6285 64.1763 19.2593 79 19.2593 79C19.2593 79 18.3659 64.1763 12.5926 58.1509C8.30359 53.6747 0 53.9811 0 53.9811C0 53.9811 8.30359 53.646 12.5926 49.1698C18.3659 43.1445 19.2593 28 19.2593 28Z"
    fill="url(#paint0_linear_179_10791)" />
  <path
    d="M50.6296 0C50.6296 0 50.8142 8.90852 53.7009 12.4528C55.8454 15.0859 61 15.283 61 15.283C61 15.283 55.8454 15.1028 53.7009 17.7358C50.8142 21.2802 50.6296 30 50.6296 30C50.6296 30 50.183 21.2802 47.2963 17.7358C45.1518 15.1028 41 15.283 41 15.283C41 15.283 45.1518 15.0859 47.2963 12.4528C50.183 8.90852 50.6296 0 50.6296 0Z"
    fill="url(#paint1_linear_179_10791)" />
  <path
    d="M55.1852 66C55.1852 66 55.3421 73.4238 57.7958 76.3774C59.6186 78.5716 64 78.7358 64 78.7358C64 78.7358 59.6186 78.5856 57.7958 80.7799C55.3421 83.7335 55.1852 91 55.1852 91C55.1852 91 54.8055 83.7335 52.3519 80.7799C50.529 78.5856 47 78.7358 47 78.7358C47 78.7358 50.529 78.5716 52.3519 76.3774C54.8055 73.4238 55.1852 66 55.1852 66Z"
    fill="url(#paint2_linear_179_10791)" />
  <defs>
    <linearGradient id="paint0_linear_179_10791" x1="20" y1="28" x2="20" y2="79"
      gradientUnits="userSpaceOnUse">
      <stop stop-color="#7F3F98" />
      <stop offset="1" stop-color="#E47651" />
    </linearGradient>
    <linearGradient id="paint1_linear_179_10791" x1="51" y1="0" x2="51" y2="30"
      gradientUnits="userSpaceOnUse">
      <stop stop-color="#7F3F98" />
      <stop offset="1" stop-color="#E47651" />
    </linearGradient>
    <linearGradient id="paint2_linear_179_10791" x1="55.5" y1="66" x2="55.5" y2="91"
      gradientUnits="userSpaceOnUse">
      <stop stop-color="#7F3F98" />
      <stop offset="1" stop-color="#E47651" />
    </linearGradient>
  </defs>
</svg>
  