<svg width="32" height="32" viewBox="0 0 32 32" fill="none" xmlns="http://www.w3.org/2000/svg">
<path fill-rule="evenodd" clip-rule="evenodd" d="M2.6665 16C2.6665 9.71456 2.6665 6.57187 4.61913 4.61925C6.57174 2.66663 9.71444 2.66663 15.9998 2.66663C22.2852 2.66663 25.428 2.66663 27.3805 4.61925C29.3332 6.57187 29.3332 9.71456 29.3332 16C29.3332 22.2853 29.3332 25.4281 27.3805 27.3806C25.428 29.3333 22.2852 29.3333 15.9998 29.3333C9.71444 29.3333 6.57174 29.3333 4.61913 27.3806C2.6665 25.4281 2.6665 22.2853 2.6665 16ZM15.9998 8.33329C16.5521 8.33329 16.9998 8.78101 16.9998 9.33329V16.2524L19.2928 13.9596C19.6833 13.569 20.3164 13.569 20.7069 13.9596C21.0974 14.3501 21.0974 14.9832 20.7069 15.3737L16.7069 19.3737C16.5194 19.5613 16.265 19.6666 15.9998 19.6666C15.7346 19.6666 15.4802 19.5613 15.2928 19.3737L11.2927 15.3737C10.9022 14.9832 10.9022 14.3501 11.2927 13.9596C11.6833 13.569 12.3164 13.569 12.7069 13.9596L14.9998 16.2524V9.33329C14.9998 8.78101 15.4476 8.33329 15.9998 8.33329ZM10.6665 21.6666C10.1142 21.6666 9.6665 22.1144 9.6665 22.6666C9.6665 23.2189 10.1142 23.6666 10.6665 23.6666H21.3332C21.8854 23.6666 22.3332 23.2189 22.3332 22.6666C22.3332 22.1144 21.8854 21.6666 21.3332 21.6666H10.6665Z" fill="#2E0040"/>
</svg>
