<svg width="25" height="25" viewBox="0 0 18 19" fill="none" xmlns="http://www.w3.org/2000/svg">
<g clip-path="url(#clip0_2104_4752)">
<path d="M12.5666 17.29L12.7655 16.7453L12.4893 16.6627L12.2398 16.7992L12.5666 17.29ZM15.0999 14.9966L14.5667 14.687L14.4033 14.9186L14.4995 15.1778L15.0999 14.9966ZM16.3666 18.4252L16.1677 18.971C16.2794 19.0045 16.3992 19.0091 16.5136 18.9844C16.628 18.9597 16.7326 18.9066 16.8156 18.8312C16.8985 18.7557 16.9567 18.6608 16.9834 18.5571C17.0102 18.4534 17.0045 18.345 16.967 18.244L16.3666 18.4252ZM12.2398 16.7992C11.0289 17.4585 9.09216 17.853 7.49996 17.853V18.9997C9.25429 18.9997 11.4342 18.5754 12.8934 17.7808L12.2398 16.7992ZM7.49996 17.8518C2.95265 17.8518 -0.733338 14.5173 -0.733338 10.4029H-2C-1.99967 11.532 -1.75368 12.65 -1.27608 13.693C-0.798484 14.7361 -0.0986291 15.6837 0.783524 16.4819C1.66568 17.2801 2.71285 17.9131 3.86526 18.3449C5.01767 18.7768 6.25274 18.9988 7.49996 18.9985V17.8518ZM7.49996 2.95627C12.0473 2.95627 15.7333 6.29086 15.7333 10.4041H16.9999C16.9989 8.12394 15.9975 5.93756 14.216 4.32582C12.4344 2.71407 10.0186 1.80896 7.49996 1.80957V2.95627ZM15.7333 10.4041C15.7333 11.9303 15.3583 13.5666 14.5667 14.687L15.6332 15.3062C16.6022 13.9359 16.9999 12.0576 16.9999 10.4041H15.7333ZM12.3677 17.8347L16.1677 18.971L16.5655 17.8817L12.7655 16.7464L12.3677 17.8347ZM16.967 18.244L15.7003 14.8154L14.4995 15.1778L15.7662 18.6075L16.967 18.244Z" fill="url(#paint0_linear_2104_4752)"/>
<path d="M9.89062 1.04492L7.11565 2.70012L9.65945 4.63563" stroke="url(#paint1_linear_2104_4752)" stroke-linecap="round"/>
<path d="M4.17898 14H3.25568L5.92614 6.72727H6.83523L9.50568 14H8.58239L6.40909 7.87784H6.35227L4.17898 14ZM4.51989 11.1591H8.24148V11.9403H4.51989V11.1591ZM11.5192 6.72727V14H10.6385V6.72727H11.5192Z" fill="url(#paint2_linear_2104_4752)"/>
</g>
<defs>
<linearGradient id="paint0_linear_2104_4752" x1="7.5" y1="1.80957" x2="7.5" y2="19" gradientUnits="userSpaceOnUse">
<stop offset="1" stop-color="#6E6565"/>
</linearGradient>
<linearGradient id="paint1_linear_2104_4752" x1="8.56093" y1="0.974843" x2="8.37158" y2="4.56776" gradientUnits="userSpaceOnUse">
<stop offset="1" stop-color="#6E6565"/>
</linearGradient>
<linearGradient id="paint2_linear_2104_4752" x1="3" y1="6.625" x2="15.325" y2="7.67137" gradientUnits="userSpaceOnUse">
<stop offset="1" stop-color="#6E6565"/>
</linearGradient>
<clipPath id="clip0_2104_4752">
<rect width="18" height="19" fill="white"/>
</clipPath>
</defs>
</svg>
