<svg width="32" height="32" viewBox="0 0 32 32" fill="none" xmlns="http://www.w3.org/2000/svg">
<g clip-path="url(#clip0_295_1318)">
<path d="M23.6506 0H13.0184H12.1945L11.6123 0.582125L3.56357 8.63138L2.98145 9.2135V10.037V26.6316C2.98145 29.5916 5.38945 32.0001 8.34995 32.0001H23.6506C26.6102 32.0001 29.0182 29.5916 29.0182 26.6316V5.3685C29.0182 2.408 26.6102 0 23.6506 0ZM27.0309 26.6316C27.0309 28.4989 25.5175 30.0123 23.6506 30.0123H8.34995C6.4822 30.0123 4.96882 28.4989 4.96882 26.6316V10.0369H10.2011C11.7564 10.0369 13.0184 8.77581 13.0184 7.22006V1.98775H23.6506C25.5175 1.98775 27.0309 3.50113 27.0309 5.3685V26.6316Z" fill="#1D1D1D"/>
<path d="M10.7463 15.7991H8.96329C8.62379 15.7991 8.42041 16.0199 8.42041 16.3506V20.9603C8.42041 21.3595 8.68316 21.6227 9.04797 21.6227C9.40491 21.6227 9.6676 21.3596 9.6676 20.9603V19.5599C9.6676 19.5258 9.68504 19.5088 9.7191 19.5088H10.7463C12.0023 19.5088 12.7581 18.7447 12.7581 17.6581C12.7582 16.5544 12.011 15.7991 10.7463 15.7991ZM10.6696 18.4305H9.7191C9.68504 18.4305 9.6676 18.4135 9.6676 18.3799V16.928C9.6676 16.8939 9.68504 16.877 9.7191 16.877H10.6696C11.1958 16.877 11.51 17.1912 11.51 17.6581C11.5101 18.125 11.1958 18.4305 10.6696 18.4305Z" fill="#1D1D1D"/>
<path d="M15.6367 15.7991H14.2699C13.9304 15.7991 13.7271 16.0199 13.7271 16.3506V21.0283C13.7271 21.3596 13.9304 21.5716 14.2699 21.5716H15.6367C16.8673 21.5716 17.6319 21.1811 17.9373 20.2389C18.0473 19.9076 18.1075 19.5088 18.1075 18.6853C18.1075 17.8619 18.0472 17.463 17.9373 17.1318C17.6318 16.1896 16.8673 15.7991 15.6367 15.7991ZM16.7407 19.806C16.5959 20.2642 16.1804 20.4597 15.6026 20.4597H15.0257C14.9917 20.4597 14.9742 20.4427 14.9742 20.4087V16.9621C14.9742 16.928 14.9917 16.911 15.0257 16.911H15.6026C16.1804 16.911 16.5959 17.1065 16.7407 17.5648C16.8001 17.7603 16.842 18.0998 16.842 18.6854C16.842 19.271 16.8001 19.6105 16.7407 19.806Z" fill="#1D1D1D"/>
<path d="M22.5725 15.7991H19.7718C19.4323 15.7991 19.228 16.0199 19.228 16.3506V20.9603C19.228 21.3595 19.4917 21.6227 19.8565 21.6227C20.2125 21.6227 20.4761 21.3596 20.4761 20.9603V19.3133C20.4761 19.2797 20.4927 19.2627 20.5267 19.2627H22.1571C22.5219 19.2627 22.734 19.0419 22.734 18.7277C22.734 18.4134 22.5219 18.1931 22.1571 18.1931H20.5267C20.4927 18.1931 20.4761 18.1761 20.4761 18.1421V16.928C20.4761 16.8939 20.4927 16.877 20.5267 16.877H22.5725C22.9208 16.877 23.1503 16.6479 23.1503 16.3424C23.1503 16.0281 22.9207 15.7991 22.5725 15.7991Z" fill="#1D1D1D"/>
</g>
<defs>
<clipPath id="clip0_295_1318">
<rect width="32" height="32" fill="white"/>
</clipPath>
</defs>
</svg>
