<svg width="24" height="24" viewBox="0 0 24 24" fill="none" xmlns="http://www.w3.org/2000/svg">
<rect width="24" height="24" rx="5" fill="#6A2588"/>
<path d="M17.0833 5H6.66667C5.74619 5 5 5.74619 5 6.66667V17.0833C5 18.0038 5.74619 18.75 6.66667 18.75H17.0833C18.0038 18.75 18.75 18.0038 18.75 17.0833V6.66667C18.75 5.74619 18.0038 5 17.0833 5Z" stroke="white"/>
<path d="M8.75 10.8333V15.4166" stroke="white" stroke-linecap="round" stroke-linejoin="round"/>
<path d="M8.74984 9.37492C9.21007 9.37492 9.58317 9.00182 9.58317 8.54159C9.58317 8.08135 9.21007 7.70825 8.74984 7.70825C8.2896 7.70825 7.9165 8.08135 7.9165 8.54159C7.9165 9.00182 8.2896 9.37492 8.74984 9.37492Z" fill="white"/>
<path d="M15 15.4166V12.7083C15 11.6727 14.1605 10.8333 13.125 10.8333C12.0895 10.8333 11.25 11.6727 11.25 12.7083V15.4166" stroke="white" stroke-linecap="round"/>
</svg>
