<svg width="17" height="14" viewBox="0 0 17 14" fill="none" xmlns="http://www.w3.org/2000/svg">
<g clip-path="url(#clip0_52_15208)">
<path d="M10.7188 1.07692C11.5619 1.07692 12.5184 1.428 13.0544 2.01277C13.7208 1.87708 14.3498 1.62885 14.9151 1.28477C14.6969 1.98531 14.2312 2.57331 13.6264 2.94485C14.2184 2.87108 14.7852 2.71115 15.3104 2.47154C14.9171 3.073 14.4206 3.60231 13.8477 4.02608C13.8528 4.15423 13.8559 4.28346 13.8559 4.41269C13.8559 8.37954 11.0104 12.9231 5.6163 12.9231C3.96099 12.9231 2.3139 12.4562 1.01748 11.6044C1.24647 11.6335 1.48008 11.6475 1.71626 11.6475C3.09021 11.6475 4.35479 11.1677 5.35958 10.3611C4.07497 10.3379 2.99163 9.46939 2.6199 8.27777C2.79806 8.31223 2.9829 8.33162 3.17184 8.33162C3.4378 8.33162 3.69811 8.29554 3.94353 8.22608C2.60193 7.952 1.5915 6.73831 1.5915 5.28392C1.5915 5.26992 1.5915 5.25754 1.5915 5.24462C1.98735 5.46969 2.43866 5.60538 2.91975 5.62154C2.13265 5.08146 1.61563 4.16446 1.61563 3.12254C1.61563 2.57223 1.7599 2.05585 2.012 1.61431C3.45783 3.42838 5.61938 4.62431 8.05716 4.75031C8.00633 4.53062 7.98014 4.29908 7.98014 4.067C7.98014 2.40854 9.0984 1.07692 10.7188 1.07692ZM15.3104 2.47154H15.313H15.3104ZM10.7188 0C8.74516 0 7.21872 1.48238 6.98973 3.528C5.35239 3.17962 3.86292 2.26369 2.79293 0.921308C2.59834 0.676846 2.31184 0.537385 2.012 0.537385C1.9853 0.537385 1.9586 0.538462 1.9319 0.540615C1.6033 0.568077 1.30757 0.760846 1.13762 1.05862C0.782839 1.68108 0.594922 2.39454 0.594922 3.12254C0.594922 3.60769 0.678098 4.081 0.834182 4.52308C0.667316 4.718 0.571304 4.97431 0.571304 5.24462V5.28392C0.571304 6.33877 0.966134 7.31715 1.6223 8.05108C1.58482 8.23523 1.59304 8.42962 1.65054 8.61431C1.87748 9.34123 2.28925 9.96692 2.82322 10.444C2.46433 10.528 2.09415 10.5705 1.71626 10.5705C1.51653 10.5705 1.32297 10.5587 1.1407 10.535C1.09911 10.5302 1.05804 10.5275 1.01696 10.5275C0.589275 10.5275 0.200606 10.8112 0.0553041 11.2463C-0.10386 11.7223 0.071734 12.2516 0.478373 12.5187C1.93242 13.4739 3.75716 14 5.6163 14C9.12767 14 11.3082 12.3001 12.5189 10.8742C13.9873 9.14523 14.8417 6.84815 14.875 4.55269C15.351 4.13646 15.771 3.65615 16.1268 3.11877C16.2557 2.93892 16.3322 2.71438 16.3322 2.47154C16.3322 2.10485 16.1591 1.78123 15.8947 1.58631C16.0092 1.17169 15.8778 0.722615 15.5584 0.448538C15.372 0.289154 15.1441 0.207846 14.9146 0.207846C14.7395 0.207846 14.5634 0.255231 14.4047 0.352154C14.0633 0.56 13.6982 0.723692 13.3137 0.841077C12.6072 0.318769 11.6486 0 10.7188 0Z" fill="white"/>
</g>
<defs>
<clipPath id="clip0_52_15208">
<rect width="16.3333" height="14" fill="white"/>
</clipPath>
</defs>
</svg>
