<svg width="32" height="32" viewBox="0 0 32 32" fill="none" xmlns="http://www.w3.org/2000/svg">
<g clip-path="url(#clip0_295_1270)">
<path d="M0 16V14.016C0 11.7973 0.778667 9.90933 2.336 8.352C3.89333 6.79467 5.78133 6.016 8 6.016C8.68267 6.016 9.408 6.13333 10.176 6.368C10.56 4.53333 11.488 3.01867 12.96 1.824C14.432 0.629333 16.1173 0.0213333 18.016 0C20.2133 0 22.0907 0.789333 23.648 2.368C25.2053 3.94667 25.9947 5.824 26.016 8C26.016 8.59733 25.9093 9.28 25.696 10.048C25.8453 10.0267 25.952 10.016 26.016 10.016C27.6587 10.016 29.0667 10.6027 30.24 11.776C31.4133 12.9493 32 14.3573 32 16V18.016C32 19.68 31.4133 21.088 30.24 22.24C29.0667 23.392 27.6587 23.9787 26.016 24H25.632C25.824 23.4667 25.9413 22.9867 25.984 22.56C26.048 21.6853 25.9413 20.832 25.664 20C25.3867 19.168 24.9173 18.432 24.256 17.792L20.256 13.792C19.0827 12.5973 17.664 12 16 12C14.336 12 12.928 12.5867 11.776 13.76L7.776 17.76C7.136 18.4 6.66667 19.1467 6.368 20C6.06933 20.8533 5.96267 21.7173 6.048 22.592C6.06933 22.976 6.15467 23.392 6.304 23.84C4.49067 23.4347 2.98667 22.5067 1.792 21.056C0.597333 19.6053 0 17.92 0 16ZM10.016 22.208C9.952 21.568 10.144 21.0347 10.592 20.608L14.592 16.608C14.9973 16.2027 15.4667 16 16 16C16.5547 16 17.024 16.2027 17.408 16.608L21.408 20.608C21.856 21.0347 22.0587 21.568 22.016 22.208C21.9947 22.4 21.9413 22.592 21.856 22.784C21.7067 23.1467 21.4613 23.4453 21.12 23.68C20.7787 23.9147 20.4053 24.0213 20 24H18.016V30.016C18.016 30.5707 17.8133 31.04 17.408 31.424C17.0027 31.808 16.5333 32 16 32C15.4667 32 14.9973 31.808 14.592 31.424C14.1867 31.04 13.9947 30.5707 14.016 30.016V24H12C11.5947 24 11.232 23.8933 10.912 23.68C10.592 23.4667 10.336 23.168 10.144 22.784C10.08 22.592 10.0373 22.4 10.016 22.208Z" fill="#0176FF"/>
</g>
<defs>
<clipPath id="clip0_295_1270">
<rect width="32" height="32" fill="white"/>
</clipPath>
</defs>
</svg>
