<svg width="21" height="20" viewBox="0 0 21 20" fill="none" xmlns="http://www.w3.org/2000/svg">
<path d="M18.7914 10.6074C19.0355 10.3981 19.1575 10.2935 19.2023 10.169C19.2415 10.0597 19.2415 9.94022 19.2023 9.83095C19.1575 9.70645 19.0355 9.60183 18.7914 9.39258L10.3206 2.13196C9.9004 1.77176 9.69029 1.59166 9.5124 1.58725C9.3578 1.58342 9.21012 1.65134 9.11242 1.77122C9 1.90915 9 2.18589 9 2.73936V7.03462C6.86532 7.40807 4.91159 8.48974 3.45971 10.1139C1.87682 11.8845 1.00123 14.1759 1 16.5509V17.1629C2.04934 15.8989 3.35951 14.8765 4.84076 14.1659C6.1467 13.5394 7.55842 13.1683 9 13.0705V17.2606C9 17.8141 9 18.0908 9.11242 18.2288C9.21012 18.3486 9.3578 18.4166 9.5124 18.4127C9.69029 18.4083 9.9004 18.2282 10.3206 17.868L18.7914 10.6074Z" stroke="#758195" stroke-width="2.004" stroke-linecap="round" stroke-linejoin="round"/>
</svg>
