<svg width="28" height="29" viewBox="0 0 28 29" fill="none" xmlns="http://www.w3.org/2000/svg">
<path d="M8.66667 21.6666H19.3333M12.6903 2.68533L3.64719 9.71883C3.04269 10.189 2.74045 10.4241 2.5227 10.7185C2.32982 10.9793 2.18614 11.273 2.0987 11.5854C2 11.938 2 12.3209 2 13.0867V22.7333C2 24.2268 2 24.9735 2.29065 25.5439C2.54631 26.0457 2.95426 26.4537 3.45603 26.7093C4.02646 27 4.77319 27 6.26667 27H21.7333C23.2268 27 23.9735 27 24.544 26.7093C25.0457 26.4537 25.4537 26.0457 25.7093 25.5439C26 24.9735 26 24.2268 26 22.7333V13.0867C26 12.3209 26 11.938 25.9013 11.5854C25.8139 11.273 25.6702 10.9793 25.4773 10.7185C25.2595 10.4241 24.9573 10.189 24.3528 9.71883L15.3097 2.68533C14.8413 2.32099 14.6071 2.13883 14.3485 2.0688C14.1203 2.00701 13.8797 2.00701 13.6515 2.0688C13.3929 2.13883 13.1587 2.32099 12.6903 2.68533Z" stroke="#758195" stroke-width="2.672" stroke-linecap="round" stroke-linejoin="round"/>
</svg>
