<svg width="28" height="29" viewBox="0 0 28 29" fill="none" xmlns="http://www.w3.org/2000/svg">
<path d="M8.66667 21.6668H19.3333M12.6903 2.68545L3.64719 9.71895C3.04269 10.1891 2.74045 10.4242 2.5227 10.7186C2.32982 10.9794 2.18614 11.2732 2.0987 11.5855C2 11.9381 2 12.321 2 13.0869V22.7334C2 24.2269 2 24.9736 2.29065 25.5441C2.54631 26.0458 2.95426 26.4538 3.45603 26.7094C4.02646 27.0001 4.77319 27.0001 6.26667 27.0001H21.7333C23.2268 27.0001 23.9735 27.0001 24.544 26.7094C25.0457 26.4538 25.4537 26.0458 25.7093 25.5441C26 24.9736 26 24.2269 26 22.7334V13.0869C26 12.321 26 11.9381 25.9013 11.5855C25.8139 11.2732 25.6702 10.9794 25.4773 10.7186C25.2595 10.4242 24.9573 10.1891 24.3528 9.71896L15.3097 2.68545C14.8413 2.32112 14.6071 2.13895 14.3485 2.06892C14.1203 2.00714 13.8797 2.00714 13.6515 2.06892C13.3929 2.13895 13.1587 2.32112 12.6903 2.68545Z" stroke="#156FEF" stroke-width="2.672" stroke-linecap="round" stroke-linejoin="round"/>
</svg>
