<svg width="28" height="29" viewBox="0 0 28 29" fill="none" xmlns="http://www.w3.org/2000/svg">
<path d="M10 12.6667L12.6667 15.3333L18.6667 9.33333M11.2 23.6L13.1467 26.1956C13.4362 26.5815 13.5809 26.7745 13.7584 26.8436C13.9138 26.904 14.0862 26.904 14.2416 26.8436C14.4191 26.7745 14.5638 26.5815 14.8533 26.1956L16.8 23.6C17.1909 23.0788 17.3863 22.8183 17.6247 22.6193C17.9425 22.3541 18.3177 22.1664 18.7207 22.0713C19.0228 22 19.3486 22 20 22C21.8638 22 22.7956 22 23.5307 21.6955C24.5108 21.2895 25.2895 20.5108 25.6955 19.5307C26 18.7956 26 17.8638 26 16V8.4C26 6.15979 26 5.03968 25.564 4.18404C25.1805 3.43139 24.5686 2.81947 23.816 2.43597C22.9603 2 21.8402 2 19.6 2H8.4C6.15979 2 5.03968 2 4.18404 2.43597C3.43139 2.81947 2.81947 3.43139 2.43597 4.18404C2 5.03968 2 6.15979 2 8.4V16C2 17.8638 2 18.7956 2.30448 19.5307C2.71046 20.5108 3.48915 21.2895 4.46927 21.6955C5.20435 22 6.13623 22 8 22C8.65144 22 8.97716 22 9.27934 22.0713C9.68225 22.1664 10.0575 22.3541 10.3753 22.6193C10.6137 22.8183 10.8091 23.0788 11.2 23.6Z" stroke="#758195" stroke-width="2.672" stroke-linecap="round" stroke-linejoin="round"/>
</svg>
