<svg width="16" height="12" viewBox="0 0 16 12" fill="none" xmlns="http://www.w3.org/2000/svg">
<path d="M6.66634 3.33329V2.66663M6.66634 6.33329V5.66663M6.66634 9.33329V8.66663M3.46634 0.666626H12.533C13.2797 0.666626 13.6531 0.666626 13.9383 0.811951C14.1892 0.939782 14.3932 1.14376 14.521 1.39464C14.6663 1.67985 14.6663 2.05322 14.6663 2.79996V3.66663C13.3777 3.66663 12.333 4.71129 12.333 5.99996C12.333 7.28862 13.3777 8.33329 14.6663 8.33329V9.19996C14.6663 9.9467 14.6663 10.3201 14.521 10.6053C14.3932 10.8562 14.1892 11.0601 13.9383 11.188C13.6531 11.3333 13.2797 11.3333 12.533 11.3333H3.46634C2.7196 11.3333 2.34624 11.3333 2.06102 11.188C1.81014 11.0601 1.60616 10.8562 1.47833 10.6053C1.33301 10.3201 1.33301 9.9467 1.33301 9.19996V8.33329C2.62167 8.33329 3.66634 7.28862 3.66634 5.99996C3.66634 4.71129 2.62167 3.66663 1.33301 3.66663V2.79996C1.33301 2.05322 1.33301 1.67985 1.47833 1.39464C1.60616 1.14376 1.81014 0.939782 2.06102 0.811951C2.34624 0.666626 2.7196 0.666626 3.46634 0.666626Z" stroke="#156FEF" stroke-width="1.33" stroke-linecap="round" stroke-linejoin="round"/>
</svg>
